<?xml version="1.0" encoding="utf-8"?>
<!-- Generator: Adobe Illustrator 25.2.1, SVG Export Plug-In . SVG Version: 6.00 Build 0)  -->
<svg version="1.1" id="Layer_1" xmlns="http://www.w3.org/2000/svg" xmlns:xlink="http://www.w3.org/1999/xlink" x="0px" y="0px"
	 viewBox="0 0 21.32 21.75" style="enable-background:new 0 0 21.32 21.75;" xml:space="preserve">
<style type="text/css">
	.st0{fill:#547DBF;}
	.st1{fill:#33A852;}
	.st2{fill:#F9BC15;}
	.st3{fill:#EA4435;}
</style>
<g id="Group_837" transform="translate(0 0.024)">
	<path id="Path_859" class="st0" d="M21.31,11.1c0-0.74-0.06-1.48-0.19-2.21H10.87v4.19h5.87c-0.24,1.35-1.03,2.54-2.17,3.3v2.72
		h3.51C20.24,17,21.42,14.09,21.31,11.1L21.31,11.1z"/>
	<path id="Path_860" class="st1" d="M10.87,21.72c2.65,0.07,5.23-0.86,7.21-2.63l-3.51-2.72c-3.07,1.96-7.14,1.07-9.11-2
		c-0.29-0.45-0.52-0.94-0.69-1.45H1.16v2.8C3,19.4,6.76,21.72,10.87,21.72z"/>
	<path id="Path_861" class="st2" d="M4.77,12.93c-0.46-1.35-0.46-2.81,0-4.16v-2.8H1.16c-1.54,3.07-1.54,6.69,0,9.77L4.77,12.93z"/>
	<path id="Path_862" class="st3" d="M10.87,4.28c1.55-0.03,3.05,0.56,4.17,1.63l3.1-3.1c-1.97-1.85-4.57-2.86-7.28-2.84
		C6.76-0.02,3,2.3,1.16,5.97l3.61,2.8C5.63,6.12,8.09,4.31,10.87,4.28z"/>
</g>
</svg>
