<?xml version="1.0" encoding="utf-8"?>
<!-- Generator: Adobe Illustrator 25.2.1, SVG Export Plug-In . SVG Version: 6.00 Build 0)  -->
<svg version="1.1" id="Layer_1" xmlns="http://www.w3.org/2000/svg" xmlns:xlink="http://www.w3.org/1999/xlink" x="0px" y="0px"
	 viewBox="0 0 29.7 9.3" style="enable-background:new 0 0 29.7 9.3;" xml:space="preserve">
<style type="text/css">
	.st0{fill:#57C0EE;}
	.st1{fill:#223366;}
</style>
<g>
	<path id="Path_864" class="st0" d="M29.59,2.74c-0.28-0.79-1.03-1.32-1.87-1.32H27.7c-0.76,0.79-2.01,0.81-2.79,0.06
		c-0.02-0.02-0.04-0.04-0.06-0.06h-0.02c-0.47,0-0.93,0.17-1.29,0.48V1.75c-0.01-0.15-0.14-0.27-0.29-0.27h-1.32
		c-0.16,0-0.29,0.13-0.29,0.29c0,0,0,0,0,0v7.19c0,0.16,0.13,0.29,0.29,0.29c0,0,0,0,0,0h1.32c0.15,0,0.27-0.11,0.29-0.25V3.84
		c0-0.02,0-0.03,0-0.05c0.02-0.24,0.21-0.43,0.46-0.44h0.24c0.1,0.01,0.2,0.05,0.28,0.11c0.12,0.09,0.18,0.24,0.18,0.39l0.01,5.13
		c0,0.16,0.13,0.29,0.29,0.29h1.32c0.16,0,0.28-0.12,0.29-0.28V3.83c0-0.17,0.08-0.32,0.21-0.41c0.07-0.05,0.16-0.07,0.24-0.08h0.24
		c0.26,0.01,0.47,0.23,0.46,0.5l0.01,5.13c0,0.16,0.13,0.29,0.29,0.29h1.33c0.16,0,0.29-0.13,0.29-0.29V3.44
		C29.71,3.21,29.67,2.97,29.59,2.74z M20.63,1.5h-0.76V0.27c0-0.15-0.11-0.26-0.26-0.27c-0.02,0-0.04,0-0.06,0.01
		c-0.84,0.23-0.67,1.39-2.2,1.49H17.2c-0.02,0-0.04,0-0.06,0.01l0,0C17,1.53,16.91,1.65,16.91,1.79v1.32c0,0.16,0.13,0.29,0.29,0.29
		H18v5.61c0,0.16,0.13,0.29,0.29,0.29l0,0h1.31c0.16,0,0.29-0.13,0.29-0.29v0V3.4h0.74c0.16,0,0.29-0.13,0.29-0.29V1.79
		C20.92,1.63,20.79,1.5,20.63,1.5z"/>
	<path id="Path_865" class="st1" d="M15.87,1.5h-1.32c-0.16,0-0.29,0.13-0.29,0.29v2.74c-0.01,0.17-0.14,0.3-0.31,0.3h-0.55
		c-0.17,0-0.31-0.14-0.31-0.31c0,0,0,0,0,0V1.78c0-0.16-0.13-0.29-0.29-0.29h-1.33c-0.16,0-0.29,0.13-0.29,0.29v3
		c-0.04,1.04,0.77,1.91,1.8,1.95c0.05,0,0.1,0,0.15,0c0,0,0.86,0,0.88,0c0.17,0.02,0.29,0.17,0.27,0.34
		C14.26,7.22,14.14,7.33,14,7.35h-0.02l-1.94,0.01c-0.16,0-0.29,0.13-0.29,0.29v1.32c0,0.16,0.13,0.29,0.29,0.29c0,0,0,0,0,0h2.16
		c1.04,0.04,1.91-0.76,1.95-1.8c0-0.05,0-0.1,0-0.15V1.79C16.16,1.63,16.03,1.5,15.87,1.5C15.87,1.5,15.87,1.5,15.87,1.5L15.87,1.5z
		 M3.18,1.5H0.29C0.13,1.5,0,1.62,0,1.78v1.3c0,0,0,0,0,0.01S0,3.1,0,3.11v5.87c0,0.15,0.11,0.28,0.27,0.29h1.35
		c0.16,0,0.29-0.13,0.29-0.29V6.96h1.27c0.95,0.05,1.75-0.68,1.8-1.63c0-0.06,0-0.11,0-0.17V3.3c0.05-0.95-0.69-1.75-1.64-1.8
		C3.29,1.5,3.23,1.5,3.18,1.5L3.18,1.5z M3.06,4.74c0,0.17-0.14,0.31-0.31,0.31H1.91V3.41h0.84c0.17,0,0.31,0.14,0.31,0.31l0,0V4.74
		z M8.34,1.5H6.51C6.35,1.5,6.22,1.62,6.21,1.78v0.51c0,0,0,0.01,0,0.01s0,0.01,0,0.01v0.7c0,0.17,0.14,0.3,0.31,0.29c0,0,0,0,0,0
		h1.75c0.14,0.02,0.25,0.14,0.26,0.28v0.17C8.53,3.9,8.42,4.02,8.28,4.03H7.41C6.4,3.96,5.52,4.72,5.45,5.73
		c0,0.05-0.01,0.1-0.01,0.14v1.54C5.39,8.37,6.12,9.19,7.08,9.24c0.07,0,0.14,0,0.22,0h2.4c0.42,0.01,0.77-0.31,0.78-0.73V3.49
		C10.47,2.27,9.84,1.5,8.34,1.5z M8.55,7.23c0,0.02,0,0.03,0,0.05C8.52,7.43,8.39,7.53,8.25,7.53H7.69C7.53,7.53,7.39,7.4,7.38,7.24
		c0,0,0,0,0,0V6.99c0,0,0-0.01,0-0.01V6.1c0.01-0.17,0.15-0.29,0.31-0.29c0,0,0,0,0,0h0.55C8.41,5.81,8.55,5.94,8.55,6.1
		c0,0,0,0,0,0V7.23L8.55,7.23z"/>
</g>
</svg>
