<?xml version="1.0" encoding="utf-8"?>
<!-- Generator: Adobe Illustrator 25.2.1, SVG Export Plug-In . SVG Version: 6.00 Build 0)  -->
<svg version="1.1" id="Layer_1" xmlns="http://www.w3.org/2000/svg" xmlns:xlink="http://www.w3.org/1999/xlink" x="0px" y="0px"
	 viewBox="0 0 23.26 23.26" style="enable-background:new 0 0 23.26 23.26;" xml:space="preserve">
<style type="text/css">
	.st0{fill:#603393;}
	.st1{fill:#FFFFFF;}
</style>
<g id="Group_839" transform="translate(41 -3152)">
	<g id="Group_839-2" transform="translate(-41 3152)">
		<circle id="Ellipse_1" class="st0" cx="11.63" cy="11.63" r="11.63"/>
		<path id="Path_863" class="st1" d="M16.91,8.6c-0.01-0.46-0.38-0.84-0.85-0.85h-1.56l-3.57-4.09c-0.34-0.38-0.87-0.54-1.36-0.39
			L8.33,3.66C8.18,3.71,8.1,3.87,8.15,4.02C8.16,4.05,8.18,4.08,8.2,4.11l3.9,3.7H6.19C6.02,7.8,5.88,7.93,5.86,8.1
			c0,0.01,0,0.02,0,0.04v0.65c0.01,0.46,0.38,0.84,0.85,0.85h0.91v3.12c0,2.34,1.24,3.7,3.31,3.7c0.62,0.02,1.24-0.09,1.82-0.32
			v2.08c-0.01,0.57,0.45,1.03,1.01,1.04c0.01,0,0.02,0,0.03,0h0.91c0.21-0.01,0.38-0.18,0.39-0.39V9.56h1.49
			c0.17,0.01,0.31-0.12,0.32-0.29c0-0.01,0-0.02,0-0.04L16.91,8.6z M12.75,14.18c-0.41,0.18-0.85,0.27-1.3,0.26
			c-1.04,0-1.56-0.52-1.56-1.69V9.64h2.86L12.75,14.18z"/>
	</g>
</g>
</svg>
