<svg width="839" height="505" viewBox="0 0 839 505" fill="none" xmlns="http://www.w3.org/2000/svg">
<g clip-path="url(#clip0_1_207)">
<path d="M96.849 361.736C96.849 361.736 205.938 587.962 562.523 471.131C919.108 354.3 733.046 134.783 572.623 214.081C412.2 293.379 267.6 193.974 267.6 193.974C267.6 193.974 170.016 136.785 102.521 217.991C102.521 217.992 53.028 270.919 96.849 361.736Z" fill="#F5F5FE"/>
<path d="M305.95 134.27C305.95 134.27 296.402 203.465 426.439 202.916C556.476 202.367 612.405 105.43 569.15 81.358C531.261 60.275 483.503 96.199 430.594 80.014C362.646 59.226 304.318 92.341 305.95 134.27Z" fill="#F5F5FE"/>
<path d="M241.705 70.505H114.089C112.823 70.505 111.608 70.0019 110.713 69.1064C109.817 68.211 109.314 66.9964 109.314 65.73C109.314 65.1031 109.438 64.4823 109.678 63.9032C109.918 63.324 110.27 62.7978 110.713 62.3546C111.156 61.9114 111.683 61.5598 112.262 61.32C112.841 61.0802 113.462 60.9569 114.089 60.957H241.705C242.332 60.9569 242.953 61.0802 243.532 61.32C244.111 61.5598 244.638 61.9114 245.081 62.3546C245.524 62.7978 245.876 63.324 246.116 63.9032C246.356 64.4823 246.48 65.1031 246.48 65.73C246.48 66.9964 245.977 68.211 245.081 69.1064C244.186 70.0019 242.971 70.505 241.705 70.505Z" fill="#6F7DE0"/>
<path d="M829.494 435.643H790.659C790.032 435.643 789.411 435.52 788.832 435.28C788.253 435.04 787.726 434.689 787.283 434.245C786.84 433.802 786.488 433.276 786.248 432.697C786.008 432.118 785.884 431.497 785.884 430.87C785.884 429.604 786.387 428.389 787.283 427.494C788.178 426.598 789.393 426.095 790.659 426.095H829.494C830.121 426.095 830.742 426.218 831.322 426.458C831.901 426.698 832.428 427.05 832.871 427.493C833.315 427.937 833.666 428.463 833.906 429.042C834.146 429.622 834.27 430.243 834.27 430.87C834.27 431.497 834.146 432.118 833.906 432.697C833.666 433.276 833.314 433.803 832.871 434.246C832.427 434.689 831.901 435.041 831.321 435.28C830.742 435.52 830.121 435.643 829.494 435.643Z" fill="#AB47BC"/>
<path d="M446.052 6.332H434.683C433.744 6.332 432.982 7.09356 432.982 8.033V18.938C432.982 19.8774 433.744 20.639 434.683 20.639H446.052C446.991 20.639 447.753 19.8774 447.753 18.938V8.033C447.753 7.09356 446.991 6.332 446.052 6.332Z" fill="#AB47BC"/>
<path d="M87.077 453.298H75.708C74.7686 453.298 74.007 454.06 74.007 454.999V465.904C74.007 466.843 74.7686 467.605 75.708 467.605H87.077C88.0165 467.605 88.778 466.843 88.778 465.904V454.999C88.778 454.06 88.0165 453.298 87.077 453.298Z" fill="#AB47BC"/>
<path d="M837.612 312.85C837.585 314.835 836.972 316.767 835.85 318.404C834.728 320.041 833.147 321.31 831.306 322.051C829.464 322.791 827.445 322.971 825.502 322.568C823.559 322.164 821.778 321.195 820.384 319.782C818.99 318.369 818.045 316.575 817.668 314.627C817.291 312.678 817.498 310.662 818.264 308.831C819.03 307 820.32 305.436 821.973 304.336C823.625 303.236 825.565 302.65 827.55 302.65C830.237 302.669 832.806 303.755 834.692 305.667C836.579 307.58 837.629 310.163 837.612 312.85Z" stroke="white" stroke-width="1.87" stroke-linecap="round" stroke-linejoin="round"/>
<path d="M21.711 256.782C21.6824 258.83 21.0489 260.825 19.89 262.514C18.7312 264.203 17.0988 265.512 15.198 266.276C13.2973 267.04 11.2131 267.225 9.20744 266.808C7.20179 266.391 5.36424 265.39 3.92582 263.932C2.4874 262.473 1.51231 260.622 1.12318 258.61C0.734041 256.599 0.948224 254.518 1.73878 252.628C2.52933 250.738 3.86098 249.124 5.56629 247.989C7.2716 246.854 9.27443 246.248 11.323 246.248C12.6968 246.258 14.0552 246.538 15.3207 247.072C16.5863 247.607 17.7341 248.385 18.6987 249.363C19.6634 250.342 20.4259 251.5 20.9427 252.773C21.4596 254.046 21.7206 255.408 21.711 256.782Z" stroke="white" stroke-width="1.87" stroke-linecap="round" stroke-linejoin="round"/>
<path d="M732.557 73.25H785.592" stroke="white" stroke-width="1.87" stroke-linecap="round" stroke-linejoin="round"/>
<path d="M38.356 397.404H155.36" stroke="white" stroke-width="1.87" stroke-linecap="round" stroke-linejoin="round"/>
<path d="M780.562 160.451H651.077C650.087 160.451 649.285 161.253 649.285 162.243V198.501C649.285 199.491 650.087 200.293 651.077 200.293H780.562C781.552 200.293 782.354 199.491 782.354 198.501V162.243C782.354 161.253 781.552 160.451 780.562 160.451Z" fill="#6F7DE0"/>
<path d="M667.485 174.118H756.568" stroke="white" stroke-width="0.702" stroke-miterlimit="10"/>
<path d="M667.485 184.803H698.732" stroke="white" stroke-width="0.702" stroke-miterlimit="10"/>
<path d="M663.839 195.953V210.901L682.639 195.953H663.839Z" fill="#6F7DE0"/>
<path d="M64.398 128.009H157.311C158.623 128.009 159.881 128.53 160.809 129.458C161.737 130.386 162.258 131.644 162.258 132.956V220.348C162.258 221.66 161.737 222.918 160.809 223.846C159.881 224.774 158.623 225.295 157.311 225.295H65.976C64.2455 225.295 62.5858 224.608 61.3621 223.384C60.1384 222.16 59.451 220.501 59.451 218.77V132.956C59.451 131.644 59.9722 130.386 60.8999 129.458C61.8277 128.53 63.086 128.009 64.398 128.009Z" fill="#AB47BC"/>
<path d="M134.331 184.606L128.231 178.506C127.743 177.94 127.142 177.483 126.466 177.163C125.791 176.844 125.056 176.67 124.309 176.652C122.823 176.694 121.413 177.321 120.385 178.396L116.899 181.884L116.245 181.556C115.871 181.396 115.507 181.215 115.155 181.012C111.708 178.764 108.653 175.967 106.111 172.73C104.971 171.375 104.018 169.872 103.279 168.262C104.149 167.5 104.913 166.628 105.679 165.862C106.007 165.534 106.333 165.208 106.659 164.88C107.24 164.382 107.707 163.763 108.027 163.067C108.347 162.372 108.513 161.615 108.513 160.849C108.513 160.083 108.347 159.326 108.027 158.631C107.707 157.935 107.24 157.316 106.659 156.818L103.609 153.766C103.255 153.428 102.928 153.063 102.629 152.676L100.557 150.606C99.53 149.532 98.1207 148.906 96.635 148.864C95.8969 148.871 95.1681 149.029 94.4935 149.329C93.819 149.628 93.213 150.063 92.713 150.606L88.899 154.42C87.4721 155.857 86.5866 157.744 86.393 159.76C86.269 162.589 86.7518 165.413 87.809 168.04C89.7231 173.289 92.6065 178.132 96.309 182.316C101.097 188.033 107.038 192.674 113.743 195.936C116.811 197.491 120.132 198.487 123.549 198.878H124.313C125.542 198.897 126.76 198.654 127.887 198.165C129.015 197.677 130.025 196.954 130.851 196.044L130.959 195.936C131.557 195.228 132.213 194.572 132.921 193.974L134.337 192.558C134.878 192.047 135.309 191.43 135.604 190.746C135.898 190.062 136.05 189.325 136.049 188.581C136.049 187.836 135.896 187.099 135.6 186.416C135.305 185.732 134.873 185.117 134.331 184.606ZM131.825 190.272L130.517 191.58C129.755 192.232 129.101 192.996 128.337 193.758C127.836 194.293 127.228 194.715 126.552 194.997C125.876 195.279 125.147 195.414 124.415 195.394H123.871C120.894 195.084 118.007 194.196 115.371 192.778C109.125 189.714 103.594 185.37 99.135 180.03C95.7812 176.099 93.0942 171.644 91.181 166.844C90.1687 164.743 89.7181 162.415 89.873 160.088C89.9451 158.875 90.4936 157.739 91.399 156.928L95.099 153.228C95.4898 152.786 96.0367 152.512 96.625 152.464C96.9189 152.476 97.2068 152.551 97.4698 152.683C97.7329 152.814 97.965 153 98.151 153.228L100.113 155.19C100.448 155.58 100.811 155.943 101.201 156.278L104.253 159.33C104.674 159.737 104.943 160.275 105.015 160.856C104.967 161.443 104.694 161.989 104.253 162.38C103.925 162.708 103.599 163.034 103.273 163.362C102.291 164.342 101.419 165.214 100.547 166.086L100.443 166.195C100.061 166.522 99.7916 166.962 99.6742 167.451C99.5567 167.94 99.5969 168.454 99.789 168.919V169.029C100.713 171.146 101.925 173.126 103.389 174.913C106.167 178.459 109.519 181.516 113.305 183.957C113.754 184.252 114.227 184.507 114.721 184.719C115.095 184.879 115.459 185.061 115.811 185.265L115.919 185.373C116.415 185.639 116.986 185.73 117.54 185.631C118.093 185.532 118.598 185.25 118.971 184.829L122.785 181.015C122.951 180.779 123.172 180.587 123.428 180.454C123.684 180.322 123.968 180.252 124.256 180.252C124.544 180.252 124.828 180.322 125.084 180.454C125.34 180.587 125.561 180.779 125.727 181.015L131.827 187.115C132.057 187.309 132.241 187.551 132.368 187.824C132.494 188.096 132.56 188.393 132.56 188.694C132.559 188.995 132.494 189.292 132.367 189.564C132.24 189.837 132.055 190.078 131.825 190.272Z" fill="white"/>
<path d="M547.063 0H632.34C633.544 0 634.699 0.47832 635.55 1.32974C636.402 2.18115 636.88 3.33592 636.88 4.54V84.75C636.88 85.9541 636.402 87.1089 635.55 87.9603C634.699 88.8117 633.544 89.29 632.34 89.29H548.512C547.725 89.29 546.947 89.1351 546.22 88.834C545.493 88.533 544.833 88.0917 544.277 87.5355C543.721 86.9793 543.279 86.3189 542.979 85.5922C542.678 84.8655 542.523 84.0866 542.523 83.3V4.54C542.523 3.33592 543.001 2.18115 543.853 1.32974C544.704 0.47832 545.859 0 547.063 0Z" fill="#AB47BC"/>
<path d="M600.75 37.348C600.75 35.082 600.078 32.8669 598.819 30.9828C597.56 29.0987 595.771 27.6303 593.677 26.7631C591.584 25.896 589.28 25.6691 587.058 26.1111C584.835 26.5532 582.794 27.6444 581.192 29.2467C579.589 30.849 578.498 32.8904 578.056 35.1128C577.614 37.3353 577.841 39.6389 578.708 41.7324C579.575 43.8259 581.044 45.6152 582.928 46.8742C584.812 48.1331 587.027 48.805 589.293 48.805C592.332 48.805 595.246 47.5979 597.394 45.4493C599.543 43.3007 600.75 40.3866 600.75 37.348ZM580.7 37.348C580.7 35.6484 581.203 33.9868 582.147 32.5734C583.091 31.1601 584.433 30.0584 586.003 29.4077C587.573 28.757 589.301 28.5865 590.968 28.9179C592.635 29.2492 594.166 30.0675 595.368 31.2691C596.57 32.4708 597.389 34.0019 597.721 35.6688C598.052 37.3358 597.882 39.0637 597.232 40.6339C596.582 42.2042 595.48 43.5464 594.067 44.4907C592.654 45.435 590.993 45.939 589.293 45.939C587.014 45.939 584.829 45.0339 583.218 43.4229C581.606 41.8118 580.7 39.6267 580.7 37.348Z" fill="white"/>
<path d="M588.14 71.133C588.272 71.3154 588.446 71.4639 588.647 71.5662C588.848 71.6686 589.07 71.722 589.295 71.722C589.521 71.722 589.743 71.6686 589.944 71.5662C590.145 71.4639 590.319 71.3154 590.451 71.133C590.567 70.974 591.113 70.227 591.941 69.05L600.395 55.974C604.323 49.274 607.915 41.905 607.915 37.348C607.915 32.4101 605.953 27.6744 602.462 24.1827C598.97 20.6911 594.234 18.7295 589.297 18.7295C584.359 18.7295 579.623 20.6911 576.131 24.1827C572.64 27.6744 570.678 32.4101 570.678 37.348C570.678 41.774 574.067 48.854 577.859 55.394L586.659 69.056C587.479 70.231 588.023 70.974 588.14 71.133ZM589.296 21.595C591.365 21.5949 593.413 22.0023 595.325 22.794C597.236 23.5856 598.973 24.7461 600.436 26.209C601.899 27.6719 603.059 29.4087 603.85 31.3201C604.642 33.2315 605.049 35.2802 605.049 37.349C605.049 44.2 594.578 60.388 589.296 67.836C584.015 60.388 573.543 44.2 573.543 37.349C573.543 33.1715 575.202 29.165 578.156 26.2106C581.109 23.2563 585.115 21.5961 589.293 21.595H589.296Z" fill="white"/>
<path d="M393.765 504.159C392.997 501.859 354.065 321.487 342.265 266.84C341.268 262.182 338.885 257.935 335.429 254.656C331.973 251.377 327.607 249.22 322.903 248.468C294.522 243.928 232.714 237.447 172.054 253.558C159.623 256.858 145.809 274.523 151.578 296.133L203.29 504.159H393.765Z" fill="#4C53BB"/>
<path d="M403.804 503.018C403.036 500.718 363.761 318.935 351.961 264.287C350.964 259.629 348.581 255.382 345.125 252.103C341.669 248.824 337.303 246.667 332.599 245.915C304.218 241.375 242.412 234.896 181.75 251.005C175.772 252.619 170.663 256.508 167.515 261.84C164.368 267.172 163.431 273.524 164.906 279.538L219.334 503.018H403.804Z" fill="#6F7DE0"/>
<path d="M368.381 185.818C368.381 185.818 328.634 189.158 316.309 219.437C303.984 249.716 316.309 257.237 297.823 268.42C279.337 279.603 238.723 310.338 278.437 371.031L485.701 351.017C484.912 350.151 524.417 278.423 455.383 230.128L368.381 185.818Z" fill="black"/>
<path d="M575.007 279.757L562.16 319.472L597.712 328.22L609.189 289.733L575.007 279.757Z" fill="#FFC4A7"/>
<path d="M573.042 290.008C573.042 290.008 598.39 306.875 605.508 301.962C617.949 293.375 630.181 259.521 630.181 259.521C630.181 259.521 582.103 237.276 582.514 238.038C582.925 238.8 573.042 290.008 573.042 290.008Z" fill="#FFC4A7"/>
<path d="M573.042 290.008C567.82 286.141 565.581 275.998 562.792 246.894C562.691 246.243 562.719 245.579 562.875 244.94C563.031 244.3 563.312 243.698 563.702 243.167C564.092 242.637 564.583 242.189 565.147 241.849C565.71 241.509 566.336 241.283 566.987 241.186C568.85 240.968 571.739 241.406 572.922 244.139L583.776 266.239L573.042 290.008Z" fill="#FFC4A7"/>
<path d="M576.213 259.035L587.813 217.299C588.181 215.947 589.066 214.793 590.277 214.087C591.487 213.381 592.927 213.178 594.285 213.523C595.433 213.809 596.428 214.526 597.061 215.526C597.694 216.525 597.918 217.731 597.685 218.891L591.674 250.159L576.213 259.035Z" fill="#FFC4A7"/>
<path d="M594.282 244.646L608.05 215.246C608.614 214 609.635 213.019 610.902 212.506C612.169 211.993 613.586 211.987 614.857 212.49C615.925 212.928 616.788 213.753 617.275 214.8C617.761 215.846 617.835 217.038 617.482 218.137L606.353 252.454L594.282 244.646Z" fill="#FFC4A7"/>
<path d="M606.056 254.471L622.856 225.819C623.598 224.538 624.8 223.588 626.217 223.161C627.635 222.734 629.162 222.862 630.488 223.519C631.081 223.83 631.606 224.255 632.034 224.769C632.462 225.284 632.784 225.878 632.981 226.518C633.179 227.157 633.248 227.829 633.185 228.496C633.121 229.162 632.927 229.809 632.613 230.4L618.904 257.602L606.056 254.471Z" fill="#FFC4A7"/>
<path d="M630.181 259.521L642.988 242.153C643.256 241.678 643.427 241.154 643.491 240.612C643.555 240.071 643.511 239.522 643.362 238.997C643.212 238.472 642.96 237.983 642.62 237.556C642.28 237.13 641.859 236.775 641.381 236.512C640.411 236.009 639.297 235.858 638.229 236.087C637.16 236.315 636.204 236.907 635.525 237.763L618.902 257.602L630.181 259.521Z" fill="#FFC4A7"/>
<path d="M578.757 256.022C578.757 256.022 596.127 255.472 596.223 278.574" stroke="#E5967A" stroke-width="1.064" stroke-linecap="round" stroke-linejoin="round"/>
<path d="M444.688 303.437C469.955 318.496 524.713 375.857 524.713 375.857L559.867 298.7L619.01 309.588C619.01 309.588 579.86 411.202 560.356 443.276C550.199 459.982 530.849 470.256 508.35 458.46L445.31 420.019L444.688 303.437Z" fill="#AB47BC"/>
<path d="M391.236 288.033C391.236 288.033 311.636 293.976 297.519 346.712C283.402 399.448 285.635 503.437 285.635 503.437H476.529L470.586 343.737C470.586 343.737 466.38 291.005 391.236 288.033Z" fill="#AB47BC"/>
<path d="M474.078 437.559L469.001 366.458" stroke="#E0225D" stroke-miterlimit="10"/>
<path d="M500.116 503.74L577.106 361.628C577.701 360.529 578.582 359.611 579.656 358.971C580.729 358.331 581.956 357.993 583.206 357.992H765.149C766.032 357.992 766.901 358.218 767.672 358.649C768.444 359.08 769.092 359.702 769.554 360.454C770.017 361.207 770.28 362.066 770.317 362.948C770.353 363.831 770.164 364.708 769.765 365.497L699.881 503.74H500.116Z" fill="#F2F2F2"/>
<path d="M380.426 486.405H524.419V503.74H380.426V486.405Z" fill="white"/>
<path d="M661.877 433.907C661.877 436.923 660.983 439.872 659.307 442.38C657.631 444.889 655.25 446.843 652.463 447.998C649.676 449.152 646.609 449.454 643.651 448.866C640.692 448.278 637.975 446.825 635.842 444.692C633.709 442.559 632.256 439.842 631.668 436.883C631.08 433.925 631.382 430.858 632.536 428.071C633.691 425.284 635.645 422.903 638.154 421.227C640.662 419.551 643.611 418.657 646.627 418.657C650.672 418.657 654.55 420.264 657.41 423.124C660.27 425.984 661.877 429.863 661.877 433.907Z" fill="#989898"/>
<path d="M500.116 503.74L576.676 362.422C577.401 361.082 578.476 359.963 579.785 359.183C581.094 358.403 582.59 357.992 584.114 357.992H679.647" stroke="#0C0B0C" stroke-width="1.277" stroke-linecap="round" stroke-linejoin="round"/>
<path d="M417.432 211.827C416.939 225.927 428.121 237.763 446.003 238.388C458.649 238.83 462.741 227.53 463.234 213.43C463.727 199.33 453.875 187.538 441.228 187.096C428.581 186.654 417.928 197.726 417.432 211.827Z" fill="#4040EB"/>
<path d="M423.996 212.056C423.503 226.156 433.355 237.946 446.004 238.388C458.653 238.83 469.304 227.759 469.798 213.658C470.292 199.557 460.439 187.768 447.79 187.326C435.141 186.884 424.49 197.955 423.996 212.056Z" fill="#2A3596"/>
<path d="M400.26 145.327C402.537 141.339 399.61 133.876 399.61 133.876C377.134 133.876 357.74 141.076 346.567 161.607C330.134 191.812 342.067 238.518 380.741 252.729C417.851 266.366 398.086 149.134 398.086 149.134L400.26 145.327Z" fill="black"/>
<path d="M421.452 260.181L418.967 296.575C418.122 310.297 409.212 317.112 395.708 316.175C384.179 315.375 373.764 308.675 373.131 297.141L376.399 238.521L421.452 260.181Z" fill="#FFC4A7"/>
<path d="M420.093 281.749C420.093 281.749 393.386 277.355 376.335 244.449L421.811 255.87L420.093 281.749Z" fill="#E5967A"/>
<path d="M409.792 264.922C432.865 265.796 451.719 248.387 452.409 229.542L453.77 185.065C454.184 173.699 450.162 162.618 442.556 154.162C434.949 145.707 424.353 140.54 413.007 139.754C395.266 138.52 363.063 164.865 362 180.127L361.3 215.91C360.751 243.585 387.194 264.065 409.792 264.922Z" fill="#FFC4A7"/>
<path d="M399.507 133.929C399.621 133.914 399.719 133.893 399.833 133.878L399.507 133.929Z" fill="#F7DE9E"/>
<path d="M339.74 210.817C339.492 214.363 340.3 217.903 342.064 220.989C343.828 224.076 346.467 226.57 349.649 228.156C352.83 229.742 356.41 230.349 359.936 229.9C363.462 229.451 366.776 227.967 369.459 225.634C372.141 223.302 374.072 220.226 375.006 216.796C375.94 213.367 375.837 209.737 374.708 206.366C373.579 202.995 371.476 200.035 368.665 197.86C365.853 195.684 362.46 194.392 358.914 194.145C356.56 193.981 354.197 194.281 351.96 195.03C349.722 195.779 347.654 196.961 345.874 198.509C344.093 200.058 342.635 201.941 341.583 204.053C340.53 206.165 339.904 208.463 339.74 210.817Z" fill="#FFC4A7"/>
<path d="M363.562 217.827C363.562 217.827 364.462 204.838 351.896 206.017" stroke="#20181F" stroke-width="1.277" stroke-linecap="round" stroke-linejoin="round"/>
<path d="M427.297 222.646L428.72 234.388L422.637 234.612" stroke="#0C0B0C" stroke-width="1.277" stroke-linecap="round" stroke-linejoin="round"/>
<path d="M402.1 198.699C402.1 198.699 414.215 197.059 414.027 201.408C414.027 201.408 413.807 204.356 403.249 205.608C392.691 206.86 390.006 206.345 389.244 203.635C388.482 200.925 396.443 199.082 402.1 198.699Z" fill="black"/>
<path d="M441.094 198.991C441.094 198.991 431.494 197.552 430.958 201.599C430.958 201.599 430.67 204.342 439.066 205.43C447.462 206.518 450.125 205.686 450.779 203.495C451.522 201.006 445.638 199.306 441.094 198.991Z" fill="black"/>
<path d="M399.91 216.478C399.883 217.249 400.086 218.011 400.493 218.667C400.899 219.324 401.491 219.844 402.194 220.164C402.897 220.483 403.678 220.587 404.44 220.461C405.202 220.336 405.909 219.988 406.473 219.461C407.036 218.933 407.431 218.25 407.606 217.499C407.781 216.747 407.729 215.96 407.457 215.238C407.185 214.516 406.705 213.89 406.077 213.441C405.449 212.992 404.703 212.739 403.931 212.715C403.42 212.698 402.911 212.782 402.432 212.962C401.953 213.142 401.515 213.414 401.141 213.764C400.768 214.113 400.467 214.533 400.256 214.998C400.044 215.464 399.927 215.967 399.91 216.478Z" fill="black"/>
<path d="M435.83 216.478C435.805 217.248 436.008 218.008 436.414 218.662C436.821 219.316 437.412 219.835 438.114 220.153C438.815 220.471 439.595 220.574 440.355 220.449C441.115 220.324 441.821 219.976 442.383 219.449C442.946 218.923 443.339 218.242 443.514 217.492C443.689 216.741 443.638 215.956 443.366 215.235C443.095 214.515 442.616 213.89 441.99 213.442C441.364 212.993 440.619 212.74 439.849 212.715C439.338 212.698 438.829 212.782 438.35 212.962C437.872 213.142 437.433 213.414 437.06 213.764C436.687 214.113 436.386 214.533 436.175 214.999C435.964 215.464 435.847 215.967 435.83 216.478Z" fill="black"/>
<path d="M404.951 241.369H429.884C429.884 241.369 428.728 249.969 415.661 249.329C413.264 249.301 410.938 248.516 409.015 247.086C407.091 245.657 405.669 243.656 404.951 241.369Z" fill="#F7F7F7"/>
<path d="M358.914 194.145C358.914 194.145 395.17 206.969 420.67 158.834C420.67 158.834 448.41 164.756 453.77 187.414C453.77 187.414 468.228 132.041 397.963 131.975L357.67 156.358L358.914 194.145Z" fill="black"/>
<path d="M380.638 311.091L414.543 332.629C414.543 332.629 418.224 309 418.967 296.654L380.638 311.091Z" fill="#FFC4A7"/>
<path d="M428.555 136.738L428.638 139.1C428.638 139.1 399.597 136.952 383.477 151.933C365.51 168.633 360.577 194.633 360.577 194.633L354.32 194.042L362.185 152.822L376.857 142.178L398.67 133.957L413.243 132.042L428.555 136.738Z" fill="#2A3596"/>
<path d="M375.021 212.754C375.514 226.854 364.332 238.69 346.45 239.317C333.804 239.759 329.712 228.457 329.219 214.356C328.726 200.255 338.578 188.466 351.225 188.024C363.872 187.582 374.525 198.653 375.021 212.754Z" fill="#2A3596"/>
<path d="M346.438 239.3C359.081 238.857 368.93 227.072 368.436 212.976C367.943 198.881 357.293 187.814 344.65 188.257C332.007 188.7 322.158 200.485 322.652 214.58C323.146 228.676 333.795 239.743 346.438 239.3Z" fill="#4C53BB"/>
<path d="M345.656 191.41C346.223 180.649 348.567 170.056 352.594 160.06C360.91 140.016 380.285 128.138 401.994 128.106C403.651 128.102 405.39 128.141 407.211 128.222C413.472 128.51 420.044 129.873 425.079 133.604C426.345 134.523 427.511 135.573 428.557 136.737C428.557 136.737 400.667 132.887 384.67 145.288C366.643 159.261 358.655 180.969 356.892 196.056L345.656 191.41Z" fill="#4C53BB"/>
<path d="M364.749 231.847C367.543 234.954 371.06 237.323 374.99 238.745C378.919 240.167 383.138 240.596 387.273 239.996" stroke="#0C0B0C" stroke-width="1.277" stroke-linecap="round" stroke-linejoin="round"/>
<path d="M390.765 239.329C390.765 239.843 390.612 240.346 390.327 240.773C390.041 241.201 389.635 241.534 389.16 241.731C388.685 241.928 388.162 241.979 387.658 241.879C387.153 241.779 386.69 241.531 386.326 241.167C385.963 240.804 385.715 240.341 385.615 239.836C385.515 239.332 385.566 238.809 385.763 238.334C385.96 237.859 386.293 237.453 386.72 237.167C387.148 236.881 387.651 236.729 388.165 236.729C388.854 236.729 389.516 237.003 390.003 237.491C390.491 237.978 390.765 238.639 390.765 239.329Z" fill="#0C0B0C"/>
<path d="M415.135 477.859L378.259 472.783L379.288 503.726L407.82 503.713L415.135 477.859Z" fill="#FFC4A7"/>
<path d="M410.831 477.442C409.699 476.97 490.109 443.137 484.131 503.67H403.421L410.831 477.442Z" fill="#FFC4A7"/>
<path d="M269.276 449.385L387.757 452.951L385.53 504.159L262.346 503.401C258.25 502.851 254.333 501.377 250.892 499.089C247.45 496.8 244.575 493.759 242.483 490.195C240.391 486.631 239.138 482.637 238.819 478.517C238.499 474.397 239.122 470.258 240.639 466.414C242.853 460.806 246.867 456.091 252.049 453.009C257.232 449.927 263.291 448.653 269.276 449.385Z" fill="#AB47BC"/>
<path d="M385.57 473.347L387.758 452.947L319.689 450.707L352.936 383.233" stroke="#E0225D" stroke-miterlimit="10"/>
<path d="M321.806 450.711L285.808 450.275" stroke="#E0225D" stroke-miterlimit="10"/>
<path d="M361.295 353.474C361.295 353.474 331.128 429.382 287.855 490.561C283.004 497.417 269.511 500.826 261.119 500.461C242.178 499.644 234.152 479.24 241.308 462.636C241.308 462.636 276.123 353.218 315.515 317.605C316.507 316.709 361.295 353.474 361.295 353.474Z" fill="#AB47BC"/>
<path d="M789.274 504.16H141.261" stroke="#0C0B0C" stroke-width="1.277" stroke-linecap="round" stroke-linejoin="round"/>
<path d="M103.704 504.16H25.48" stroke="#0C0B0C" stroke-width="1.277" stroke-linecap="round" stroke-linejoin="round"/>
</g>
<defs>
<clipPath id="clip0_1_207">
<rect width="838.547" height="504.799" fill="white"/>
</clipPath>
</defs>
</svg>
