<svg width="748" height="614" viewBox="0 0 748 614" fill="none" xmlns="http://www.w3.org/2000/svg">
<g clip-path="url(#clip0_1_2)">
<path d="M677.488 50.067C676.206 45.11 674.235 40.3576 671.631 35.949L677.594 26.982L669.323 18.711L661.055 10.441L652.09 16.402C647.68 13.8 642.926 11.8298 637.968 10.549L635.844 0.00201416H612.455L610.329 10.549C605.372 11.8302 600.62 13.8011 596.211 16.404L587.244 10.443L578.972 18.714L570.701 26.985L576.665 35.949C574.062 40.3577 572.091 45.1101 570.81 50.067L560.261 52.189V75.583L570.81 77.705C572.092 82.6621 574.062 87.4148 576.665 91.824L570.702 100.789L578.973 109.06L587.245 117.331L596.212 111.37C600.621 113.973 605.373 115.944 610.33 117.227L612.452 127.773H635.844L637.968 117.227C642.924 115.944 647.677 113.972 652.086 111.37L661.051 117.331L669.323 109.06L677.594 100.789L671.631 91.824C674.234 87.4149 676.206 82.6622 677.488 77.705L688.034 75.583V52.189L677.488 50.067ZM624.149 104.872C616.043 104.872 608.119 102.469 601.379 97.9653C594.639 93.462 589.385 87.0612 586.283 79.5722C583.181 72.0833 582.369 63.8426 583.95 55.8922C585.532 47.9419 589.435 40.6389 595.167 34.907C600.898 29.175 608.201 25.2713 616.151 23.6897C624.102 22.1081 632.342 22.9196 639.831 26.0214C647.32 29.1233 653.722 34.3763 658.225 41.1161C662.729 47.856 665.133 55.7799 665.133 63.886C665.133 74.7558 660.815 85.1805 653.129 92.8668C645.443 100.553 635.019 104.871 624.149 104.872Z" fill="#AB47BC"/>
<path d="M693.448 149.537C692.86 147.264 691.956 145.085 690.762 143.064L693.496 138.953L689.704 135.161L685.913 131.37L681.803 134.104C679.782 132.911 677.604 132.007 675.332 131.418L674.358 126.583H663.63L662.656 131.418C660.384 132.007 658.206 132.911 656.185 134.104L652.074 131.37L648.282 135.161L644.491 138.953L647.225 143.064C646.032 145.085 645.128 147.264 644.541 149.537L639.705 150.51V161.23L644.541 162.204C645.128 164.476 646.032 166.654 647.225 168.675L644.491 172.786L648.282 176.577L652.074 180.369L656.185 177.637C658.206 178.83 660.384 179.733 662.656 180.321L663.63 185.156H674.354L675.328 180.321C677.6 179.733 679.778 178.829 681.799 177.637L685.909 180.369L689.7 176.577L693.492 172.786L690.758 168.675C691.952 166.654 692.856 164.476 693.444 162.204L698.278 161.23V150.51L693.448 149.537ZM668.994 174.661C665.278 174.661 661.645 173.559 658.556 171.494C655.466 169.429 653.058 166.495 651.636 163.062C650.214 159.629 649.842 155.851 650.567 152.206C651.292 148.562 653.082 145.214 655.709 142.586C658.337 139.959 661.685 138.169 665.329 137.444C668.974 136.719 672.752 137.091 676.185 138.513C679.618 139.935 682.552 142.343 684.617 145.433C686.682 148.522 687.784 152.155 687.784 155.871C687.784 158.339 687.298 160.783 686.354 163.063C685.41 165.343 684.025 167.414 682.28 169.159C680.535 170.904 678.463 172.288 676.183 173.232C673.903 174.176 671.459 174.662 668.991 174.661H668.994Z" fill="#AB47BC"/>
<path d="M411.116 522.178H353.576V347.408H411.116V522.178Z" fill="#AEBECC"/>
<path d="M149.171 431.595H615.521C623.945 431.595 630.774 424.766 630.774 416.342V96.341C630.774 87.917 623.945 81.088 615.521 81.088H149.171C140.747 81.088 133.918 87.917 133.918 96.341V416.342C133.918 424.766 140.747 431.595 149.171 431.595Z" fill="#ECECEC"/>
<path d="M611.314 376.669H153.375V43.783H611.314V376.669Z" fill="white"/>
<path d="M611.314 83.99H153.375V43.783H611.314V83.99Z" fill="#AB47BC"/>
<path d="M366.319 401.801C366.318 404.971 367.257 408.07 369.017 410.706C370.778 413.342 373.28 415.397 376.209 416.611C379.137 417.824 382.359 418.142 385.468 417.525C388.578 416.907 391.434 415.381 393.675 413.14C395.917 410.899 397.444 408.043 398.063 404.934C398.681 401.825 398.364 398.603 397.152 395.674C395.939 392.746 393.885 390.242 391.249 388.481C388.614 386.72 385.515 385.78 382.345 385.78C378.096 385.78 374.02 387.468 371.015 390.472C368.009 393.477 366.32 397.552 366.319 401.801Z" fill="#757575"/>
<path d="M292.837 124.5H446.777C448.711 124.5 450.279 122.932 450.279 120.998V116.088C450.279 114.154 448.711 112.586 446.777 112.586H292.837C290.903 112.586 289.335 114.154 289.335 116.088V120.998C289.335 122.932 290.903 124.5 292.837 124.5Z" fill="#DFE1E8"/>
<path d="M292.837 145.988H446.777C448.711 145.988 450.279 144.42 450.279 142.486V137.575C450.279 135.641 448.711 134.073 446.777 134.073H292.837C290.903 134.073 289.335 135.641 289.335 137.575V142.486C289.335 144.42 290.903 145.988 292.837 145.988Z" fill="#DFE1E8"/>
<path d="M446.779 167.476H292.839C291.911 167.476 291.02 167.107 290.364 166.451C289.708 165.794 289.339 164.904 289.339 163.976V159.064C289.339 158.136 289.708 157.246 290.364 156.589C291.02 155.933 291.911 155.564 292.839 155.564H446.779C447.707 155.564 448.597 155.933 449.254 156.589C449.91 157.246 450.279 158.136 450.279 159.064V163.976C450.279 164.904 449.91 165.794 449.254 166.451C448.597 167.107 447.707 167.476 446.779 167.476Z" fill="#DFE1E8"/>
<path d="M372.195 353.246H200.536C193.654 353.238 187.055 350.5 182.189 345.634C177.322 340.767 174.585 334.169 174.577 327.286V222.868C174.585 215.986 177.323 209.388 182.189 204.521C187.056 199.655 193.654 196.917 200.536 196.909H372.195C379.077 196.917 385.675 199.654 390.542 204.521C395.409 209.388 398.146 215.986 398.154 222.868V327.286C398.147 334.169 395.409 340.767 390.543 345.634C385.676 350.501 379.078 353.238 372.195 353.246ZM200.536 200.163C194.518 200.171 188.749 202.565 184.494 206.821C180.238 211.076 177.844 216.845 177.836 222.863V327.286C177.843 333.305 180.236 339.075 184.492 343.332C188.747 347.588 194.517 349.984 200.536 349.992H372.195C378.214 349.984 383.984 347.588 388.239 343.332C392.495 339.075 394.888 333.305 394.895 327.286V222.868C394.887 216.85 392.493 211.081 388.237 206.826C383.982 202.57 378.213 200.176 372.195 200.168L200.536 200.163Z" fill="#DFE1E8"/>
<path d="M363.161 236.262H209.569C207.734 236.262 205.974 235.533 204.676 234.235C203.378 232.937 202.649 231.177 202.649 229.342V218.072C202.649 216.237 203.378 214.477 204.676 213.179C205.974 211.881 207.734 211.152 209.569 211.152H363.162C364.997 211.152 366.757 211.881 368.054 213.179C369.352 214.476 370.081 216.236 370.081 218.071V229.342C370.081 231.177 369.352 232.937 368.054 234.235C366.756 235.533 364.996 236.262 363.161 236.262Z" fill="#DFE1E8"/>
<path d="M252.914 515.579H511.777V528.772H252.914V515.579Z" fill="#ECECEC"/>
<path d="M559.815 231.218C559.815 239.047 557.35 246.677 552.77 253.026C548.19 259.375 541.726 264.12 534.297 266.589C534.073 266.665 533.848 266.738 533.623 266.806C526.128 269.139 518.087 269.045 510.648 266.539C503.209 264.032 496.751 259.24 492.196 252.847C487.641 246.453 485.222 238.785 485.282 230.935C485.343 223.085 487.881 215.455 492.534 209.133C497.187 202.81 503.717 198.119 511.194 195.727C518.671 193.336 526.712 193.366 534.171 195.814C541.629 198.263 548.124 203.004 552.729 209.361C557.334 215.719 559.814 223.368 559.815 231.218Z" fill="#EEF0F7"/>
<path d="M513.654 227.283C513.654 227.283 511.107 210.819 524.745 211.123C538.383 211.427 538.198 219.568 537.956 227.65C537.714 235.732 532.488 235.122 538.38 246.362C544.272 257.602 533.28 257.602 533.28 257.602L524.747 245.877L513.654 227.283Z" fill="#3C4145"/>
<path d="M523.252 212.703C523.252 212.703 514.017 214.161 513.652 227.283C513.287 240.405 516.14 243.202 524.222 240.468C532.304 237.734 534.854 224.003 535.038 221.877C535.222 219.751 535.708 211.123 523.252 212.703Z" fill="#EEA886"/>
<path d="M539.472 258.348C539.497 262.28 537.396 264.909 534.298 266.589C534.074 266.665 533.849 266.738 533.624 266.806C524.472 269.639 514.581 268.852 505.992 264.606C504.869 262.366 506.492 259.185 509.799 254.306C512.069 250.949 514.294 247.523 518.099 245.858C523.717 244.963 529.662 244.91 533.85 247.276C537.19 249.16 539.414 252.586 539.472 258.348Z" fill="#AB47BC"/>
<path d="M511.609 254.101L507.363 260.793C507.373 260.757 507.655 259.744 508.133 256.808C508.226 256.251 508.323 255.625 508.428 254.924C508.46 254.715 508.504 254.509 508.562 254.306C510.379 250.116 516.047 246.999 516.253 246.895L511.609 254.101Z" fill="#AB47BC"/>
<path d="M541.362 263.391C539.125 264.702 536.757 265.774 534.297 266.591C534.073 266.667 533.848 266.74 533.623 266.808C532.682 264.377 531.863 262.273 531.686 261.73C531.635 261.571 531.514 261.276 531.348 260.877C530.583 259.016 528.868 254.877 528.848 251.642C528.836 249.554 529.526 247.842 531.625 247.358C532.354 247.178 533.112 247.149 533.853 247.273C536.197 247.699 537.566 249.805 538.33 251.673C538.343 251.704 538.355 251.736 538.366 251.766C538.75 252.726 539.03 253.724 539.201 254.743C539.201 254.743 539.239 254.89 539.301 255.154C539.434 255.674 539.685 256.663 540.013 257.954C540.389 259.443 540.859 261.335 541.362 263.391Z" fill="#EEA886"/>
<path d="M529.424 234.558C528.624 236.069 527.777 245.451 527.777 245.451C527.777 245.451 516.483 249.721 517.639 247.307C518.125 246.12 518.36 244.845 518.328 243.563C518.334 242.801 518.292 242.04 518.202 241.283C518.172 241.036 518.149 240.894 518.149 240.894C518.149 240.894 530.224 233.046 529.424 234.558Z" fill="#EEA886"/>
<path d="M519.486 222.121C519.486 222.121 524.224 229.837 528.539 232.875C532.854 235.913 530.665 238.342 530.665 238.342C530.665 238.342 541.92 214.642 531.22 213.006C520.52 211.37 513.958 211.243 513.655 227.283C513.654 227.284 518.513 221.999 519.486 222.121Z" fill="#3C4145"/>
<path d="M524.638 240.317C522.905 242.873 518.324 243.563 518.324 243.563C518.33 242.801 518.288 242.04 518.198 241.283C521.14 241.85 524.638 240.317 524.638 240.317Z" fill="#A77860"/>
<path d="M508.582 254.258C508.318 255.084 508.168 255.942 508.135 256.809L509.8 254.299C509.8 254.299 512.771 250.039 513.79 248.931C514.546 248.153 515.381 247.456 516.282 246.852C516.282 246.852 510.358 249.662 508.582 254.258Z" fill="#BD4444"/>
<path d="M531.057 260.607C531.057 260.607 538.305 257.764 540.451 257.598C540.451 257.598 538.993 245.957 531.872 247.192C524.751 248.427 531.057 260.607 531.057 260.607Z" fill="#AB47BC"/>
<path d="M518.098 245.853C518.098 245.853 512.776 254.036 514.577 254.753C516.378 255.47 526.131 253.799 530.277 246.027C530.281 246.025 524.081 242.846 518.098 245.853Z" fill="#EEA886"/>
<path d="M573.578 122.507C573.578 132.096 570.734 141.47 565.406 149.443C560.079 157.416 552.507 163.63 543.647 167.3C534.788 170.969 525.04 171.929 515.635 170.058C506.23 168.187 497.591 163.57 490.81 156.789C484.03 150.008 479.412 141.369 477.542 131.964C475.671 122.559 476.631 112.811 480.301 103.952C483.97 95.0925 490.185 87.5204 498.158 82.193C506.131 76.8655 515.505 74.022 525.094 74.022C531.461 74.022 537.766 75.2761 543.648 77.7127C549.531 80.1493 554.876 83.7207 559.378 88.223C563.88 92.7253 567.451 98.0702 569.888 103.953C572.324 109.835 573.578 116.14 573.578 122.507Z" fill="#EEF0F7"/>
<path d="M556.676 149.26L553.101 162.09C546.573 166.721 538.996 169.655 531.051 170.627C529.616 170.804 528.16 170.915 526.69 170.963C526.16 170.981 525.63 170.988 525.098 170.988C523.529 170.988 521.979 170.915 520.447 170.769C511.403 169.905 502.786 166.511 495.583 160.974C494.897 156.731 494.161 152.036 493.514 147.645C497.078 146.318 508.414 142.461 515.578 140.045C515.678 140.01 515.778 139.979 515.878 139.945C516.035 139.89 516.191 139.837 516.345 139.788L517.558 139.377C517.951 139.244 518.323 139.12 518.671 138.999C520.139 138.507 521.171 138.159 521.541 138.035L521.688 137.985H521.771L531.397 138.706L533.011 138.825L533.511 138.863L533.731 138.918C534.309 139.065 535.998 139.508 538.231 140.19H538.241C543.945 141.937 553.195 145.248 556.676 149.26Z" fill="#D9C7C1"/>
<path d="M527.619 98.433C527.619 98.433 539.164 100.381 537.204 118.452C535.244 136.523 525.058 134.931 524.377 134.904C523.696 134.877 514.128 135.123 513.623 113.026C513.622 113.026 513.475 96.69 527.619 98.433Z" fill="#EEA987"/>
<path d="M532.677 129.665C532.677 129.665 532.277 137.102 532.977 138.721C533.677 140.34 523.709 145.462 517.512 139.627C517.512 139.627 518.765 131.499 518.375 128.627C517.985 125.755 532.677 129.665 532.677 129.665Z" fill="#EEA987"/>
<path d="M537.438 113.343C537.438 113.343 538.719 112.004 539.169 113.378C539.619 114.752 537.123 120.844 537.279 121.12C537.279 121.12 537.042 121.649 536.741 121.352C536.44 121.055 537.438 113.343 537.438 113.343Z" fill="#EEA987"/>
<path d="M513.754 112.856C513.754 112.856 512.53 111.466 512.024 112.821C511.518 114.176 513.364 120.257 513.593 120.633C513.593 120.633 513.993 121.258 514.304 120.974C514.615 120.69 513.754 112.856 513.754 112.856Z" fill="#EEA987"/>
<path d="M538.178 111.807C537.778 114.279 537.404 116.118 537.404 116.118L535.724 118.312C535.791 116.44 535.738 114.565 535.567 112.699C535.467 112.411 535.355 111.899 535.239 111.344C535.045 110.431 534.848 109.399 534.712 109.056C534.497 108.506 524.819 105.681 516.201 109.647C516.201 109.647 516.274 110.394 516.269 111.228C516.269 112.196 516.158 113.279 515.716 113.443C514.889 113.743 515.234 119.121 515.234 119.121L513.89 117.57C513.89 117.57 513.502 114.762 513.12 111.534L513.115 111.511C513.03 110.759 512.941 109.985 512.857 109.216C512.665 105.97 512.986 100.075 517.213 96.616C520.066 95.395 524.621 94.358 532.213 96.681C532.99 96.7089 533.751 96.9095 534.441 97.268C539.167 102.468 538.178 111.807 538.178 111.807Z" fill="#AB47BC"/>
<path d="M519.172 132.487C519.172 132.487 521.014 135.045 525.296 134.949C529.578 134.853 531.434 132.621 531.434 132.621C531.434 132.621 529.406 136.859 525.274 136.813C521.142 136.767 519.172 132.487 519.172 132.487Z" fill="#C78D71"/>
<path d="M516.344 139.784C516.344 139.784 519.437 145.169 525.307 145.677C529.03 145.998 532.252 141.277 533.763 138.962C530.95 137.936 527.962 137.48 524.971 137.621C521.98 137.762 519.047 138.497 516.344 139.784Z" fill="#EEA987"/>
<path d="M532.69 137.262C530.57 139.761 528.079 141.919 525.304 143.662L528.429 148.48L533.761 138.965L532.69 137.262Z" fill="#EDDAD3"/>
<path d="M517.751 137.98C519.816 140.41 522.396 142.35 525.304 143.659L521.871 148.621L515.871 139.941L517.751 137.98Z" fill="#EDDAD3"/>
<path d="M525.307 143.659L527.986 147.736C527.147 148.183 526.209 148.408 525.259 148.391C524.308 148.373 523.379 148.113 522.557 147.636L525.307 143.659Z" fill="#5073AB"/>
<path d="M559.775 148.502C559.314 150.159 558.624 152.569 556.803 159.19C556.248 159.67 555.68 160.143 555.103 160.59C554.452 161.105 553.784 161.602 553.103 162.09C546.575 166.721 538.998 169.655 531.053 170.627C531.77 153.844 533.764 138.961 533.764 138.961C535.336 139.374 536.827 139.783 538.236 140.19H538.246C550.546 143.721 556.789 146.821 558.916 147.995C558.933 148.003 558.948 148.013 558.962 148.021C559.514 148.337 559.775 148.502 559.775 148.502Z" fill="#323657"/>
<path d="M515.402 170.019C506.026 168.103 497.427 163.455 490.687 156.661C490.387 156.361 490.096 156.061 489.807 155.748C488.957 152.148 488.392 149.792 488.357 149.639V149.631C488.357 149.631 494.357 145.689 515.578 140.031V140.043C515.577 140.528 515.589 154.142 515.402 170.019Z" fill="#323657"/>
<path d="M526.838 148.184C526.638 152.604 526.621 161.184 526.689 170.965C526.159 170.983 525.629 170.99 525.097 170.99C523.528 170.99 521.978 170.917 520.446 170.771C520.94 163.166 522.017 155.611 523.667 148.171C523.902 147.194 524.045 146.706 524.045 146.706L526.891 147.175C526.871 147.483 526.853 147.819 526.838 148.184Z" fill="#5073AB"/>
<path d="M562.218 153.698C560.559 155.669 558.748 157.505 556.8 159.19C556.245 159.67 555.677 160.143 555.1 160.59L559.776 148.497C560.908 149.463 561.83 152.752 562.218 153.698Z" fill="#323657"/>
<path d="M490.687 156.668C490.387 156.368 490.096 156.068 489.807 155.755C488.721 154.607 487.694 153.406 486.729 152.155C487.033 151.185 487.596 150.315 488.356 149.64V149.648L490.687 156.668Z" fill="#323657"/>
<path d="M234.521 56.29H175.799C173.979 56.29 172.503 57.7657 172.503 59.586V68.187C172.503 70.0073 173.979 71.483 175.799 71.483H234.521C236.341 71.483 237.817 70.0073 237.817 68.187V59.586C237.817 57.7657 236.341 56.29 234.521 56.29Z" fill="#F5F7FF"/>
<path d="M523.043 357.27C543.62 356.999 560.081 340.099 559.81 319.523C559.539 298.947 542.639 282.486 522.063 282.757C501.486 283.027 485.026 299.927 485.296 320.504C485.567 341.08 502.467 357.541 523.043 357.27Z" fill="#EEF0F7"/>
<path d="M522.553 334.871C522.055 334.87 521.578 334.673 521.226 334.321C520.874 333.969 520.676 333.492 520.676 332.994V307.035C520.676 306.537 520.874 306.06 521.226 305.708C521.577 305.356 522.055 305.159 522.552 305.159C523.05 305.159 523.527 305.356 523.879 305.708C524.231 306.06 524.429 306.537 524.429 307.035V332.994C524.429 333.24 524.381 333.484 524.286 333.712C524.192 333.94 524.054 334.147 523.88 334.321C523.706 334.495 523.499 334.634 523.271 334.728C523.043 334.822 522.799 334.871 522.553 334.871Z" fill="#949494"/>
<path d="M535.533 321.891H509.574C509.076 321.891 508.599 321.693 508.247 321.341C507.895 320.989 507.697 320.512 507.697 320.014C507.697 319.516 507.895 319.039 508.247 318.687C508.599 318.335 509.076 318.137 509.574 318.137H535.533C536.031 318.137 536.508 318.335 536.86 318.687C537.212 319.039 537.41 319.516 537.41 320.014C537.41 320.512 537.212 320.989 536.86 321.341C536.508 321.693 536.031 321.891 535.533 321.891Z" fill="#949494"/>
<path d="M419.746 198.536H445.865C447.035 198.536 448.158 199.001 448.985 199.829C449.813 200.656 450.278 201.779 450.278 202.949V229.07C450.278 230.24 449.813 231.363 448.985 232.19C448.158 233.018 447.035 233.483 445.865 233.483H419.746C418.575 233.483 417.453 233.018 416.625 232.19C415.797 231.362 415.332 230.24 415.332 229.069V202.95C415.332 201.779 415.797 200.657 416.625 199.829C417.453 199.001 418.575 198.536 419.746 198.536Z" fill="url(#paint0_linear_1_2)"/>
<path d="M431.699 223.707L422.865 216.007C422.517 215.704 422.304 215.274 422.273 214.814C422.241 214.353 422.394 213.899 422.697 213.552C423.001 213.204 423.43 212.991 423.891 212.959C424.351 212.928 424.805 213.081 425.153 213.384L431.399 218.83L440.308 208.893C440.458 208.715 440.643 208.569 440.851 208.464C441.058 208.359 441.285 208.297 441.518 208.281C441.75 208.265 441.983 208.296 442.203 208.371C442.423 208.447 442.626 208.566 442.799 208.722C442.973 208.877 443.113 209.066 443.212 209.276C443.311 209.487 443.367 209.716 443.377 209.948C443.386 210.181 443.348 210.413 443.266 210.631C443.184 210.849 443.059 211.048 442.899 211.217L431.699 223.707Z" fill="#F3F3F3"/>
<path d="M419.746 243.319H445.866C447.036 243.319 448.159 243.784 448.986 244.612C449.814 245.439 450.279 246.562 450.279 247.732V273.852C450.279 275.023 449.814 276.145 448.986 276.973C448.158 277.801 447.036 278.266 445.865 278.266H419.746C418.575 278.266 417.453 277.801 416.625 276.973C415.797 276.145 415.332 275.023 415.332 273.852V247.733C415.332 246.562 415.797 245.44 416.625 244.612C417.453 243.784 418.575 243.319 419.746 243.319Z" fill="url(#paint1_linear_1_2)"/>
<path d="M431.699 268.49L422.865 260.79C422.693 260.64 422.552 260.457 422.45 260.252C422.349 260.048 422.288 259.825 422.273 259.597C422.257 259.369 422.287 259.14 422.36 258.923C422.432 258.707 422.547 258.507 422.697 258.335C422.848 258.162 423.03 258.021 423.235 257.92C423.44 257.818 423.663 257.758 423.891 257.742C424.119 257.727 424.347 257.756 424.564 257.829C424.781 257.902 424.981 258.017 425.153 258.167L431.399 263.613L440.308 253.676C440.458 253.498 440.643 253.352 440.851 253.247C441.058 253.142 441.285 253.08 441.518 253.064C441.75 253.048 441.983 253.079 442.203 253.154C442.423 253.23 442.626 253.349 442.799 253.505C442.973 253.66 443.113 253.849 443.212 254.059C443.311 254.27 443.367 254.499 443.377 254.731C443.386 254.964 443.348 255.196 443.266 255.414C443.184 255.632 443.059 255.831 442.899 256L431.699 268.49Z" fill="#F3F3F3"/>
<path d="M419.746 288.103H445.865C447.035 288.103 448.158 288.568 448.985 289.396C449.813 290.223 450.278 291.346 450.278 292.516V318.636C450.278 319.216 450.164 319.79 449.942 320.325C449.72 320.861 449.395 321.347 448.985 321.757C448.575 322.167 448.089 322.492 447.553 322.714C447.018 322.936 446.444 323.05 445.864 323.05H419.746C419.166 323.05 418.592 322.936 418.057 322.714C417.521 322.492 417.034 322.167 416.624 321.757C416.215 321.347 415.889 320.86 415.668 320.324C415.446 319.789 415.332 319.215 415.332 318.635V292.517C415.332 291.346 415.797 290.224 416.625 289.396C417.453 288.568 418.575 288.103 419.746 288.103Z" fill="url(#paint2_linear_1_2)"/>
<path d="M274.717 539.558C273.854 541.542 272.754 543.415 271.442 545.136C269.942 546.72 264.205 549.55 264.174 554.253C264.141 559.353 273.846 557.938 277.642 557.753C281.438 557.568 281.726 554.844 283.323 551.953C284.92 549.062 286.534 549.553 286.832 547.226C287.13 544.899 285.609 539.684 285.609 539.684L274.717 539.558Z" fill="#131C24"/>
<path d="M274.551 538.084L274.273 540.501C274.273 540.501 280.244 542.501 285.887 540.711L285.572 537.406L274.551 538.084Z" fill="#4F4946"/>
<path d="M344.702 539.558C345.564 541.543 346.664 543.415 347.976 545.136C349.476 546.72 355.214 549.55 355.244 554.253C355.279 559.353 345.572 557.938 341.776 557.753C337.98 557.568 337.692 554.844 336.096 551.953C334.5 549.062 332.885 549.553 332.585 547.226C332.285 544.899 333.809 539.684 333.809 539.684L344.702 539.558Z" fill="#131C24"/>
<path d="M344.868 538.084L345.146 540.501C345.146 540.501 339.175 542.501 333.532 540.711L333.845 537.406L344.868 538.084Z" fill="#4F4946"/>
<path d="M341.727 473.717C341.727 480.005 347.599 537.406 347.599 537.406C346.925 539.506 332.516 539.245 330.269 538.2C328.022 537.155 321.488 480.265 321.069 473.926C320.65 467.587 311.269 412.451 309.302 412.661C307.335 412.871 297.993 471.954 296.417 476.776C294.841 481.598 287.707 538.747 287.707 538.747C282.763 541.469 271.007 538.061 271.007 538.061C271.007 538.061 273.472 479.385 273.754 477.613C274.172 474.99 273.734 467.926 274.877 452.242C275.901 438.214 279.597 407.671 281.94 391.131C282.025 390.543 282.104 389.978 282.182 389.436C282.641 386.217 282.982 383.851 283.15 382.718C283.221 382.228 283.261 381.966 283.261 381.966C283.892 381.696 284.553 381.444 285.241 381.215C301.703 375.7 333.041 376.051 333.041 376.051C333.041 376.051 333.473 381.682 333.508 381.957C333.549 382.288 333.616 382.81 333.7 383.485C333.884 384.943 334.157 387.115 334.47 389.637C334.47 389.654 334.47 389.672 334.475 389.69L334.505 389.92C335.612 398.892 337.177 412.02 337.03 413.39C336.807 415.486 341.727 467.43 341.727 473.717Z" fill="#293E4F"/>
<path d="M344.072 287.763L335.985 316.779C335.707 317.72 335.377 318.879 335.026 320.223L335.011 320.274C335.007 320.286 335.003 320.298 335.001 320.31C333.126 327.451 331.948 334.757 331.484 342.125C331.148 348.096 332.254 372.101 332.254 372.101C332.254 372.101 320.017 376.669 301.704 375.511C301.704 375.511 282.004 375.05 283.613 362.974C287.861 331.009 283.706 317.83 283.149 314.62C283.149 314.62 280.821 299.893 278.908 286.885C284.452 284.821 307.783 276.063 307.783 276.063L320.048 276.981C320.048 276.981 338.688 281.571 344.072 287.763Z" fill="#D9C7C1"/>
<path d="M313.937 235.048C313.937 235.048 325.907 237.068 323.878 255.811C321.849 274.554 311.278 272.901 310.571 272.874C309.864 272.847 299.943 273.099 299.419 250.183C299.419 250.183 299.266 233.238 313.937 235.048Z" fill="#EEA987"/>
<path d="M319.181 267.438C319.181 267.438 318.768 275.154 319.497 276.832C320.226 278.51 309.883 283.822 303.456 277.771C303.456 277.771 304.756 269.34 304.356 266.362C303.956 263.384 319.181 267.438 319.181 267.438Z" fill="#EEA987"/>
<path d="M324.12 250.511C324.12 250.511 325.449 249.123 325.914 250.547C326.379 251.971 323.793 258.291 323.954 258.578C323.954 258.578 323.709 259.126 323.397 258.82C323.085 258.514 324.12 250.511 324.12 250.511Z" fill="#EEA987"/>
<path d="M299.558 250.006C299.558 250.006 298.287 248.565 297.764 249.97C297.241 251.375 299.154 257.684 299.393 258.07C299.393 258.07 299.804 258.718 300.13 258.423C300.456 258.128 299.558 250.006 299.558 250.006Z" fill="#EEA987"/>
<path d="M324.885 248.919C324.472 251.484 324.085 253.389 324.085 253.389L322.342 255.665C322.41 253.723 322.355 251.778 322.178 249.843C322.078 249.543 321.958 249.013 321.837 248.443C321.637 247.495 321.437 246.425 321.292 246.067C321.067 245.499 311.031 242.567 302.092 246.683C302.092 246.683 302.168 247.457 302.162 248.32C302.162 249.32 302.049 250.449 301.589 250.62C300.732 250.932 301.089 256.508 301.089 256.508L299.696 254.899C299.696 254.899 299.296 251.986 298.896 248.64V248.617C298.807 247.835 298.714 247.031 298.626 246.236C298.426 242.869 298.76 236.756 303.144 233.164C306.103 231.898 314.187 230.622 318.701 233.232C319.709 233.845 320.684 234.509 321.624 235.222C326.523 240.614 324.885 248.919 324.885 248.919Z" fill="#AB47BC"/>
<path d="M305.175 270.367C305.175 270.367 307.085 273.021 311.525 272.92C315.965 272.819 317.89 270.506 317.89 270.506C317.89 270.506 315.79 274.906 311.503 274.855C307.216 274.804 305.175 270.367 305.175 270.367Z" fill="#C78D71"/>
<path d="M302.236 277.935C302.236 277.935 305.445 283.52 311.536 284.047C315.398 284.38 318.71 279.474 320.279 277.072C317.365 276.01 314.269 275.539 311.171 275.687C308.073 275.836 305.035 276.6 302.236 277.935Z" fill="#EEA987"/>
<path d="M319.194 275.317C316.995 277.908 314.411 280.147 311.533 281.954L314.775 286.954L320.304 277.054L319.194 275.317Z" fill="#EDDAD3"/>
<path d="M303.701 276.064C305.842 278.585 308.517 280.597 311.533 281.954L307.974 287.1L301.791 278.312L303.701 276.064Z" fill="#EDDAD3"/>
<path d="M311.532 281.954L314.311 286.182C313.442 286.647 312.468 286.881 311.483 286.864C310.498 286.846 309.533 286.577 308.681 286.082L311.532 281.954Z" fill="#5073AB"/>
<path d="M282.943 377.686C282.943 377.686 297.964 383.228 331.936 378.009L331.484 371.857C331.484 371.857 311.793 377.666 283.543 372.69L282.943 377.686Z" fill="#1A2833"/>
<path d="M320.303 277.047C320.303 277.047 316.791 303.322 317.273 325.956C317.755 348.59 325.105 391.03 325.105 391.03C325.105 391.03 338.205 389.746 341.458 385.652C341.458 385.652 333.941 344.805 334.158 338.752C334.375 332.699 343.792 287.171 343.792 287.171C343.792 287.171 340.11 282.259 320.303 277.047Z" fill="#385369"/>
<path d="M301.506 278.422C301.506 278.422 301.473 303.322 300.992 325.957C300.511 348.592 297.528 390.722 297.528 390.722C297.528 390.722 282.16 388.533 278.907 384.439C278.907 384.439 284.325 344.805 284.107 338.751C283.889 332.697 277.158 287.616 277.158 287.616C277.158 287.616 279.493 284.293 301.506 278.422Z" fill="#385369"/>
<path d="M303.429 373.75H312.659V380.612H303.429V373.75Z" fill="#3E5E78"/>
<path d="M310.224 285.114C310.224 285.114 306.102 299.184 305.741 327.127C305.38 355.07 306.248 363.084 306.248 363.084L309.465 369.453L313.754 362.808C313.754 362.808 312.379 298.508 313.176 285.603L310.224 285.114Z" fill="#5073AB"/>
<path d="M327.438 324.438C327.438 324.438 333.538 321.37 334.385 320.828C335.232 320.286 345.423 318.779 346.707 318.82C347.991 318.861 348.047 319.884 347.685 320.248C347.323 320.612 337.136 322.284 336.961 322.528C336.786 322.772 337.823 322.682 337.823 322.682C337.823 322.682 348.803 322.513 349.568 323.249C350.333 323.985 349.455 324.681 349.011 324.864C349.011 324.864 350.011 326.012 348.855 326.484C347.972 326.817 347.064 327.076 346.138 327.259C346.138 327.259 347.589 328.006 346.638 328.672C345.687 329.338 334.05 332.942 334.05 332.942C334.05 332.942 329.719 324.673 327.438 324.438Z" fill="#EEA886"/>
<path d="M348.401 345.467C340.472 347.361 322.144 344.287 315.161 342.748C313.68 342.422 312.01 342.08 310.29 341.742C307.434 341.182 304.453 340.634 302.032 340.204C299.051 339.67 296.922 339.314 296.922 339.314C296.922 339.314 335.388 330.672 336.808 330.672C338.228 330.672 333.257 308.186 333.257 308.186C333.257 308.186 328.303 289.353 330.875 281.952C330.875 281.952 340.635 284.911 343.793 287.168C345.556 288.426 346.851 296.594 348.051 302.149C349.574 309.187 353.109 325.218 353.51 328.601C353.874 331.686 356.332 343.575 348.401 345.467Z" fill="#385369"/>
<path d="M289.545 282.045C289.545 282.045 277.73 286.081 277.164 287.615C274.775 294.106 273.664 301.201 272.891 304.044C271.948 307.518 269.811 317.91 269.259 321.298C268.559 325.619 267.211 340.926 267.799 343.287C268.538 346.268 275.563 346.051 279.352 345.461C283.141 344.871 335.766 332.061 335.766 332.061C335.766 332.061 332.766 322.271 332.613 321.404C332.613 321.404 292.045 326.041 286.877 327.143C285.665 327.368 284.467 327.658 283.287 328.013C283.287 328.013 292.234 291.293 289.545 282.045Z" fill="#385369"/>
<path d="M296.534 325.872C296.534 325.872 291.234 321.561 290.528 320.85C289.822 320.139 280.19 316.473 278.928 316.236C278.746 316.171 278.55 316.158 278.36 316.197C278.171 316.235 277.996 316.325 277.854 316.456C277.711 316.586 277.607 316.754 277.553 316.939C277.499 317.124 277.496 317.321 277.545 317.508C277.712 318.389 287.527 321.678 287.645 321.955C287.763 322.232 286.772 321.92 286.772 321.92C286.772 321.92 276.086 319.39 275.178 319.943C274.27 320.496 274.978 321.363 275.378 321.643C275.378 321.643 274.155 322.551 275.178 323.26C275.968 323.774 276.799 324.223 277.663 324.6C277.663 324.6 276.086 325.019 276.874 325.874C277.662 326.729 283.286 328.016 283.286 328.016C283.286 328.016 294.255 325.607 296.534 325.872Z" fill="#EEA886"/>
<path d="M328.134 333.915L310.285 341.743C307.429 341.183 304.448 340.635 302.027 340.205L328.134 333.915Z" fill="#263947"/>
<path d="M319.533 234.912C319.533 234.912 322.502 233.412 324.107 235.376C325.712 237.34 325.886 248.006 323.926 252.1C321.966 256.194 324.238 237.558 319.533 234.912Z" fill="#AB47BC"/>
<path d="M201.152 340.661H206.464V582.131H201.152V340.661Z" fill="#706865"/>
<path d="M64.701 239.781H220.253C222.805 239.781 225.253 240.795 227.058 242.6C228.863 244.405 229.877 246.853 229.877 249.405V532.651C229.877 533.915 229.628 535.166 229.144 536.334C228.661 537.502 227.952 538.563 227.058 539.456C226.165 540.35 225.104 541.059 223.936 541.542C222.768 542.026 221.517 542.275 220.253 542.275H64.702C62.1493 542.275 59.7011 541.261 57.8961 539.456C56.0911 537.651 55.077 535.203 55.077 532.65V249.405C55.077 246.853 56.091 244.405 57.8958 242.6C59.7007 240.795 62.1486 239.781 64.701 239.781Z" fill="#BDAFAA"/>
<path d="M215.572 244.653H69.383C64.1313 244.653 59.874 248.91 59.874 254.162V520.947C59.874 526.199 64.1313 530.456 69.383 530.456H215.572C220.824 530.456 225.081 526.199 225.081 520.947V254.162C225.081 248.91 220.824 244.653 215.572 244.653Z" fill="white"/>
<path d="M116.433 237.488H168.521V249.251H116.433V237.488Z" fill="#706865"/>
<path d="M193.277 519.032H87.532C83.4129 519.028 79.4635 517.391 76.5505 514.478C73.6375 511.566 71.9988 507.617 71.994 503.498V443.298C71.9985 439.179 73.6368 435.23 76.5494 432.317C79.462 429.405 83.411 427.766 87.53 427.762H193.277C197.396 427.766 201.345 429.405 204.258 432.317C207.17 435.23 208.809 439.179 208.813 443.298V503.498C208.808 507.617 207.17 511.565 204.257 514.478C201.345 517.39 197.396 519.028 193.277 519.032ZM87.532 429.765C83.9431 429.768 80.5021 431.195 77.9641 433.733C75.426 436.27 73.9983 439.711 73.994 443.3V503.5C74.0001 507.088 75.4288 510.526 77.9667 513.062C80.5046 515.597 83.9445 517.023 87.532 517.026H193.277C196.865 517.022 200.305 515.595 202.842 513.058C205.379 510.521 206.807 507.081 206.811 503.493V443.293C206.807 439.705 205.379 436.265 202.842 433.728C200.305 431.191 196.865 429.764 193.277 429.759L87.532 429.765Z" fill="#C96AD9" fill-opacity="0.3"/>
<path d="M98.399 373.426C98.3909 373.423 98.3821 373.423 98.374 373.426C98.477 373.469 98.492 373.474 98.399 373.426Z" fill="#323657"/>
<path d="M190.234 366.922C186.826 366.922 183.494 365.912 180.66 364.018C177.826 362.125 175.617 359.434 174.312 356.285C173.008 353.136 172.666 349.671 173.331 346.328C173.996 342.985 175.637 339.914 178.047 337.504C180.457 335.094 183.527 333.452 186.87 332.787C190.213 332.122 193.678 332.463 196.827 333.767C199.976 335.072 202.667 337.28 204.561 340.114C206.455 342.948 207.466 346.28 207.466 349.688C207.461 354.257 205.644 358.637 202.413 361.868C199.183 365.099 194.803 366.916 190.234 366.922ZM190.234 334.457C187.222 334.457 184.277 335.35 181.772 337.023C179.267 338.696 177.314 341.075 176.161 343.858C175.008 346.641 174.706 349.704 175.293 352.658C175.881 355.613 177.331 358.327 179.461 360.457C181.591 362.588 184.305 364.038 187.26 364.626C190.214 365.214 193.277 364.913 196.06 363.76C198.843 362.607 201.222 360.655 202.896 358.15C204.57 355.645 205.463 352.7 205.463 349.688C205.459 345.65 203.853 341.779 200.998 338.923C198.143 336.068 194.272 334.462 190.234 334.457Z" fill="#C96AD9" fill-opacity="0.3"/>
<path d="M190.234 406.631C186.826 406.631 183.494 405.621 180.659 403.727C177.825 401.834 175.616 399.142 174.312 395.993C173.008 392.844 172.666 389.379 173.331 386.036C173.996 382.693 175.637 379.623 178.047 377.212C180.458 374.802 183.528 373.161 186.871 372.496C190.214 371.831 193.679 372.173 196.828 373.477C199.977 374.781 202.669 376.99 204.562 379.824C206.456 382.659 207.466 385.991 207.466 389.399C207.46 393.967 205.643 398.347 202.412 401.577C199.182 404.808 194.802 406.625 190.234 406.631ZM190.234 374.168C187.222 374.168 184.277 375.061 181.773 376.734C179.268 378.407 177.316 380.786 176.163 383.569C175.01 386.352 174.708 389.414 175.295 392.368C175.883 395.323 177.333 398.036 179.463 400.167C181.593 402.297 184.307 403.747 187.261 404.335C190.215 404.923 193.277 404.622 196.06 403.469C198.843 402.317 201.222 400.365 202.896 397.86C204.569 395.356 205.463 392.411 205.463 389.399C205.459 385.361 203.853 381.49 200.998 378.634C198.143 375.779 194.272 374.173 190.234 374.168Z" fill="#C96AD9" fill-opacity="0.3"/>
<path d="M112.563 350.456C111.141 350.456 109.702 350.386 108.284 350.256C97.9147 349.259 88.2213 344.665 80.884 337.27C80.594 336.978 80.321 336.693 80.069 336.427C79.082 335.382 78.127 334.265 77.238 333.115C71.1694 325.314 67.8898 315.704 67.923 305.821C67.9362 293.986 72.6437 282.639 81.0126 274.27C89.3816 265.901 100.729 261.193 112.564 261.18V263.18C101.259 263.192 90.4214 267.689 82.4277 275.682C74.4341 283.676 69.9377 294.513 69.925 305.818C69.8937 315.257 73.0272 324.435 78.825 331.884C79.6735 332.984 80.577 334.041 81.532 335.05C81.772 335.31 82.032 335.58 82.307 335.857C89.3082 342.928 98.5698 347.317 108.476 348.257C109.831 348.385 111.208 348.451 112.567 348.451C113.067 348.451 113.52 348.443 113.967 348.429C115.261 348.386 116.552 348.288 117.804 348.129C124.788 347.27 131.45 344.693 137.195 340.629C137.795 340.198 138.39 339.754 138.95 339.312C139.437 338.929 139.941 338.512 140.45 338.076C142.162 336.593 143.755 334.978 145.215 333.246C151.665 325.561 155.202 315.849 155.205 305.816C155.205 303.722 155.052 301.632 154.749 299.56L156.731 299.268C157.048 301.436 157.207 303.625 157.208 305.816C157.205 316.32 153.501 326.488 146.747 334.533C145.219 336.347 143.551 338.038 141.758 339.591C141.228 340.048 140.698 340.484 140.189 340.883C139.604 341.344 138.989 341.808 138.355 342.258C132.34 346.516 125.363 349.217 118.049 350.12C116.738 350.284 115.386 350.387 114.033 350.431C113.56 350.448 113.079 350.456 112.563 350.456Z" fill="#C96AD9" fill-opacity="0.3"/>
<path d="M143.705 329.452C143.574 329.278 143.428 329.116 143.269 328.967C143.206 328.89 143.128 328.827 143.04 328.781C143.027 328.772 143.014 328.763 143 328.756C134.678 324.156 119.662 320.402 119.662 320.402C119.226 319.402 119.262 315.927 119.324 313.851C120.881 312.043 122.293 309.215 123.083 304.803C123.337 304.99 123.529 304.561 123.529 304.561C123.39 304.314 125.635 298.83 125.229 297.594C125.214 297.478 125.169 297.369 125.098 297.277C125.026 297.185 124.932 297.114 124.823 297.071C124.715 297.028 124.597 297.016 124.482 297.034C124.367 297.053 124.26 297.102 124.17 297.176C124.225 296.861 124.28 296.528 124.336 296.176C124.336 296.176 125.226 287.776 120.971 283.087C120.35 282.764 119.665 282.584 118.965 282.56C112.132 280.467 108.033 281.4 105.465 282.5C101.665 285.616 101.371 290.921 101.545 293.844C101.621 294.535 101.701 295.232 101.779 295.908V295.93C101.81 296.197 101.842 296.46 101.873 296.719C101.787 296.64 101.682 296.585 101.567 296.561C101.453 296.537 101.334 296.544 101.223 296.582C101.113 296.619 101.015 296.687 100.939 296.776C100.863 296.865 100.813 296.973 100.794 297.088C100.338 298.307 102 303.781 102.207 304.119C102.207 304.119 102.565 304.681 102.846 304.426C103.631 309.236 105.046 312.196 106.536 314.026C106.385 316.726 105.903 320.1 105.771 320.993C102.282 322.093 84.786 326.749 79.493 330.226C78.8077 330.833 78.3012 331.615 78.028 332.489C78.8958 333.616 79.8203 334.698 80.798 335.731C81.056 336.008 81.323 336.283 81.592 336.554C88.7587 343.79 98.2373 348.283 108.376 349.248C109.751 349.379 111.15 349.448 112.561 349.448C113.041 349.448 113.519 349.441 113.993 349.423C115.318 349.382 116.627 349.282 117.92 349.123C125.071 348.249 131.892 345.609 137.768 341.44C138.378 341.004 138.976 340.557 139.568 340.091C140.088 339.683 140.6 339.261 141.099 338.829C142.853 337.312 144.484 335.659 145.977 333.885C145.395 332.324 144.633 330.836 143.705 329.452Z" fill="#C96AD9" fill-opacity="0.3"/>
<path d="M663.549 429.874H611.842V426.806H663.549V429.874Z" fill="#E2D2CA"/>
<path d="M652.089 437.862H656.619V577.455H652.089V437.862Z" fill="#706865"/>
<path d="M619.933 430.319H583.992V425.934H619.933V430.319Z" fill="#CCBDB7"/>
<path d="M608.767 429.874H595.157V388.537H608.767V429.874Z" fill="#4667A8"/>
<path d="M682.099 437.862H482.958V429.926H682.099V437.862Z" fill="#B59074"/>
<path d="M720.319 381.887C720.319 381.887 722.496 412.43 716.528 416.087C712.789 418.375 697.882 426.099 698.328 427.549C698.774 428.999 706.745 440.436 706.745 440.436C706.745 440.436 735.378 421.582 736.301 415.636C737.201 409.831 734.893 370.914 730.958 369.121C728.009 367.777 726.458 368.887 722.739 371.648C717.521 375.518 720.319 381.887 720.319 381.887Z" fill="#323657"/>
<path d="M668.135 390.608L665.61 389.674C665.61 389.674 668.758 382.286 670.131 382.465C671.329 382.645 672.516 382.888 673.688 383.194L668.135 390.608Z" fill="#EAD8CF"/>
<path d="M667.558 391.881C667.879 391.642 672.921 381.97 672.921 381.97L683.69 383.433L677.87 394.89L667.558 391.881Z" fill="#DA9B5B"/>
<path d="M685.089 558.395C685.089 558.395 685.98 564.576 686.089 565.504C686.198 566.432 695.989 564.957 695.989 564.957L696.783 557.598C696.783 557.598 686.313 557.524 685.089 558.395Z" fill="#424773"/>
<path d="M685.986 564.718C684.24 566.804 682.182 568.608 679.886 570.066C676.886 571.69 672.169 572.331 670.394 574.013C669.113 575.224 665.728 580.448 678.194 580.34C690.66 580.232 696.667 581.077 698.003 579.076C699.339 577.075 696.071 564.301 696.071 564.301C696.071 564.301 693.115 565.362 685.986 564.718Z" fill="#292C47"/>
<path d="M622.344 558.455C622.344 558.455 623.234 564.635 623.344 565.563C623.454 566.491 633.244 565.016 633.244 565.016L634.038 557.66C634.038 557.66 623.566 557.583 622.344 558.455Z" fill="#424773"/>
<path d="M623.242 564.775C621.494 566.86 619.435 568.663 617.137 570.12C614.137 571.745 603.092 573.077 601.318 574.757C600.037 575.97 597.907 580.857 615.444 580.395C627.905 580.072 633.917 581.134 635.254 579.132C636.591 577.13 633.32 564.353 633.32 564.353C633.32 564.353 630.54 565.493 623.242 564.775Z" fill="#292C47"/>
<path d="M716.679 451.64C716.679 451.64 681.071 457.666 673.031 458.93C664.991 460.194 621.385 471.041 615.931 474.347C611.59 476.98 618.207 540.186 619.753 564.301H636.927L638.173 491.964C658.782 492.481 673.488 487.143 688.497 489.422C703.506 491.701 716.016 494.941 725.553 482.15C725.554 482.15 725.909 454.435 716.679 451.64Z" fill="#292C47"/>
<path d="M681.583 564.358L698.32 563.324L699.952 491.962C708.822 492.184 711.864 491.621 719.045 490.751L732.56 459.341C720.716 461.709 682.771 471.278 677.712 474.341C673.371 476.98 680.042 540.244 681.583 564.358Z" fill="#292C47"/>
<path d="M700.287 318.178C700.287 318.178 687.235 314.571 682.256 324.702C677.277 334.833 679.534 354.044 686.111 355.851C692.688 357.658 702.149 355.578 704.879 349.27C707.609 342.962 709.788 334.004 709.135 328.202C708.482 322.4 703.754 319.567 700.287 318.178Z" fill="#EEA886"/>
<path d="M689.523 353.829C689.523 353.829 689.667 361.536 688.817 363.178C687.967 364.82 706.992 364.409 706.992 364.409C706.992 364.409 703.992 355.156 705.692 347.271C707.376 339.468 689.523 353.829 689.523 353.829Z" fill="#EEA886"/>
<path d="M706.718 344.356C706.718 344.356 705.702 346.424 700.777 346.089C695.852 345.754 689.357 339.813 687.268 339.283C685.179 338.753 685.053 337.563 685.053 337.563L683.948 339.531L681.806 339.856C681.806 339.856 683.261 333.901 680.09 331.804C676.919 329.707 681.518 312.822 697.574 316.895C697.574 316.895 709.829 319.14 709.993 325.984C710.157 332.828 709.095 340.731 706.718 344.356Z" fill="#3A3F47"/>
<path d="M687.821 362.981C687.821 362.981 687.874 359.841 689.296 359.541C690.718 359.241 704.252 357.379 705.996 358.065L706.745 362.209C706.745 362.209 703.377 364.28 687.821 362.981Z" fill="#E2D2CA"/>
<path d="M683.901 336.159C684.267 333.588 687.193 330.63 688.866 334.638C690.539 338.646 687.736 344.481 685.857 344.168C683.978 343.855 683.401 339.65 683.901 336.159Z" fill="#EEA886"/>
<path d="M631.139 400.067C631.142 400.065 631.146 400.064 631.15 400.064C631.154 400.064 631.158 400.065 631.161 400.067C631.064 400.107 631.049 400.11 631.139 400.067Z" fill="#323657"/>
<path d="M704.094 320.01C704.094 320.01 720.008 319.263 706.872 344.105L704.094 320.01Z" fill="#3A3F47"/>
<path d="M739.553 572.823L738.368 576.155L688.347 560.655L690.747 553.911L739.553 572.823Z" fill="#918783"/>
<path d="M692.318 558.282H686.632V503.899H692.318V558.282Z" fill="#918783"/>
<path d="M706.24 504.215H672.708V501.011H706.24V504.215Z" fill="#5E5854"/>
<path d="M638.958 572.823L640.142 576.154L690.163 560.654L687.963 553.486L638.958 572.823Z" fill="#918783"/>
<path d="M674.2 575.797V579.666L690.163 560.656L687.963 553.488L674.2 575.797Z" fill="#918783"/>
<path d="M634.283 577.456C634.283 578.381 634.557 579.285 635.07 580.054C635.584 580.823 636.314 581.422 637.169 581.776C638.023 582.13 638.963 582.223 639.87 582.042C640.777 581.862 641.61 581.417 642.264 580.763C642.918 580.109 643.363 579.276 643.543 578.369C643.724 577.462 643.631 576.522 643.277 575.667C642.923 574.813 642.324 574.083 641.555 573.569C640.786 573.056 639.882 572.782 638.957 572.782C637.717 572.782 636.529 573.275 635.652 574.151C634.776 575.028 634.283 576.216 634.283 577.456Z" fill="#BFB2AC"/>
<path d="M673.804 577.456C673.804 578.38 674.078 579.284 674.592 580.053C675.105 580.821 675.835 581.42 676.689 581.774C677.543 582.128 678.483 582.221 679.39 582.04C680.297 581.86 681.129 581.415 681.783 580.761C682.437 580.107 682.882 579.274 683.062 578.368C683.243 577.461 683.15 576.521 682.796 575.667C682.442 574.813 681.843 574.083 681.075 573.57C680.306 573.056 679.402 572.782 678.478 572.782C677.238 572.782 676.05 573.274 675.173 574.151C674.296 575.028 673.804 576.216 673.804 577.456Z" fill="#BFB2AC"/>
<path d="M734.877 577.456C734.877 578.381 735.151 579.285 735.664 580.054C736.178 580.822 736.908 581.422 737.762 581.776C738.616 582.13 739.557 582.223 740.463 582.042C741.37 581.862 742.203 581.417 742.857 580.763C743.511 580.109 743.957 579.276 744.137 578.369C744.318 577.462 744.225 576.522 743.871 575.668C743.517 574.814 742.918 574.084 742.149 573.57C741.381 573.056 740.477 572.782 739.552 572.782C738.312 572.783 737.124 573.275 736.247 574.151C735.371 575.028 734.878 576.216 734.877 577.456Z" fill="#BFB2AC"/>
<path d="M725.359 501.012H653.151C652.676 501.012 652.206 500.918 651.767 500.737C651.328 500.555 650.929 500.288 650.593 499.953C650.258 499.617 649.991 499.218 649.809 498.779C649.628 498.34 649.534 497.87 649.534 497.395V492.489C649.534 491.53 649.915 490.61 650.593 489.932C651.271 489.254 652.191 488.873 653.15 488.873H725.359C726.318 488.873 727.238 489.254 727.917 489.932C728.595 490.611 728.976 491.531 728.976 492.49V497.395C728.976 498.354 728.595 499.274 727.917 499.953C727.238 500.631 726.318 501.012 725.359 501.012Z" fill="#E2D2CA"/>
<path d="M512.968 577.455H508.436V437.862H512.968V577.455Z" fill="#706865"/>
<path d="M657.119 408.449H546.808C545.851 408.449 544.934 408.069 544.257 407.393C543.581 406.716 543.201 405.799 543.201 404.842V329.149C543.201 328.192 543.581 327.275 544.257 326.598C544.934 325.922 545.851 325.542 546.808 325.542H657.118C658.075 325.542 658.992 325.922 659.669 326.598C660.346 327.275 660.726 328.192 660.726 329.149V404.842C660.726 405.799 660.346 406.716 659.67 407.393C658.993 408.069 658.076 408.449 657.119 408.449Z" fill="#5F8BE3"/>
<path d="M656.124 395.457H547.803V330.023H656.124V395.457Z" fill="#F5F7FF"/>
<path d="M656.124 335.229H547.803V330.023H656.124V335.229Z" fill="#CECFD6"/>
<path d="M554.04 391.428H562.634C563.867 391.428 564.867 390.428 564.867 389.195V341.38C564.867 340.147 563.867 339.147 562.634 339.147H554.04C552.807 339.147 551.807 340.147 551.807 341.38V389.195C551.807 390.428 552.807 391.428 554.04 391.428Z" fill="#CECFD6"/>
<path d="M651.855 343.99H630.442C630.122 343.99 629.816 343.863 629.59 343.637C629.364 343.411 629.237 343.105 629.237 342.785V340.353C629.237 340.033 629.364 339.726 629.59 339.5C629.816 339.274 630.123 339.147 630.443 339.147H651.854C652.174 339.147 652.481 339.274 652.707 339.5C652.933 339.726 653.06 340.033 653.06 340.353V342.785C653.06 343.105 652.933 343.411 652.707 343.637C652.481 343.863 652.175 343.99 651.855 343.99Z" fill="#CECFD6"/>
<path d="M650.569 392.763H631.727C631.4 392.763 631.076 392.699 630.774 392.573C630.472 392.448 630.198 392.265 629.966 392.034C629.735 391.802 629.552 391.528 629.427 391.226C629.301 390.924 629.237 390.6 629.237 390.273V349.726C629.237 349.065 629.499 348.432 629.967 347.965C630.434 347.497 631.067 347.235 631.728 347.235H650.57C650.897 347.235 651.221 347.299 651.523 347.425C651.825 347.55 652.099 347.733 652.331 347.964C652.562 348.196 652.745 348.47 652.87 348.772C652.996 349.074 653.06 349.398 653.06 349.725V390.272C653.06 390.933 652.798 391.566 652.33 392.033C651.863 392.501 651.23 392.763 650.569 392.763Z" fill="#CECFD6"/>
<path d="M598.171 401.733C598.171 402.483 598.394 403.216 598.81 403.839C599.227 404.462 599.819 404.948 600.512 405.235C601.205 405.521 601.967 405.596 602.702 405.45C603.438 405.304 604.113 404.943 604.643 404.412C605.173 403.882 605.534 403.207 605.68 402.471C605.826 401.736 605.751 400.974 605.464 400.281C605.177 399.588 604.691 398.996 604.068 398.58C603.445 398.163 602.712 397.941 601.962 397.941C600.956 397.941 599.992 398.341 599.281 399.052C598.57 399.763 598.171 400.727 598.171 401.733Z" fill="white"/>
<path d="M577.634 430.033V428.557C577.634 428.557 579.708 419.38 594.379 419.38C609.05 419.38 608.753 430.033 608.753 430.033H577.634Z" fill="#314875"/>
<path d="M608.93 420.744C608.93 420.744 605.744 420.497 604.574 419.791C603.404 419.085 596.423 414.391 594.779 415.14C593.135 415.889 582.217 419.24 582.598 420.84C582.979 422.44 583.988 422.283 584.758 422C585.528 421.717 593.458 420.052 594.158 420.332C594.158 420.332 586.369 423.175 586.338 425.248C586.307 427.321 587.968 427.828 588.706 428.61C589.444 429.392 590.333 431.344 592.341 431.491C594.349 431.638 604.141 428.234 606.159 428.076C608.177 427.918 611.907 428.202 612.159 427.876C612.411 427.55 608.93 420.744 608.93 420.744Z" fill="#EEA886"/>
<path d="M666.956 367.33C677.119 365.544 687.815 362.981 687.815 362.981L706.741 362.209C706.741 362.209 724.113 366.033 730.953 369.123C731.601 369.416 731.604 384.623 733.385 388.607L727.714 400.571C727.714 400.571 724.437 424.271 723.757 434.815C723.445 439.653 724.638 481.581 724.638 481.581C724.638 481.581 722.938 482.421 710.022 483.844C697.106 485.267 664.831 483.329 664.627 481.804C664.423 480.279 670.876 424.994 671.163 422.133C671.602 417.739 669.894 397.433 669.894 397.433C667.46 400.702 661.256 415.464 654.794 422.49C650.988 426.62 632.152 429.154 628.602 429.271C620.873 429.531 606.775 431.071 606.363 430.316C606.033 429.865 605.134 417.802 606.018 417.507C606.79 417.25 632.972 415.741 639.679 412.184C642.133 410.884 649.469 394.884 649.469 394.884C649.469 394.884 661.349 369.848 666.956 367.33Z" fill="#323657"/>
<path d="M740.589 480.371H699.694C697.852 480.371 696.086 479.639 694.784 478.337C693.482 477.035 692.75 475.269 692.75 473.427V411.439C692.75 409.597 693.482 407.831 694.784 406.529C696.086 405.227 697.852 404.495 699.694 404.495H740.59C742.432 404.495 744.198 405.227 745.5 406.529C746.802 407.831 747.534 409.597 747.534 411.439V473.426C747.534 475.268 746.802 477.034 745.5 478.337C744.197 479.639 742.431 480.371 740.589 480.371Z" fill="#E2D2CA"/>
<path d="M702.459 497.988C710.534 497.988 717.085 495.274 721.93 489.926C732.883 477.835 730.913 456.58 730.83 455.68C730.742 454.883 730.343 454.152 729.72 453.647C729.096 453.142 728.299 452.903 727.5 452.981C726.702 453.06 725.967 453.451 725.455 454.069C724.942 454.686 724.694 455.481 724.764 456.28C724.786 456.523 726.532 475.789 717.405 485.846C713.715 489.915 708.826 491.893 702.464 491.893C701.655 491.893 700.879 492.214 700.307 492.786C699.735 493.358 699.414 494.134 699.414 494.943C699.414 495.752 699.735 496.528 700.307 497.1C700.879 497.672 701.655 497.993 702.464 497.993L702.459 497.988Z" fill="#E2D2CA"/>
<path d="M603.536 356.769C603.536 359.795 602.639 362.753 600.957 365.269C599.276 367.785 596.887 369.746 594.091 370.904C591.295 372.062 588.219 372.365 585.251 371.775C582.283 371.185 579.557 369.727 577.417 367.588C575.278 365.448 573.82 362.722 573.23 359.754C572.64 356.786 572.943 353.71 574.101 350.914C575.259 348.118 577.22 345.729 579.736 344.048C582.252 342.366 585.21 341.469 588.236 341.469C592.294 341.469 596.185 343.081 599.055 345.95C601.924 348.82 603.536 352.711 603.536 356.769Z" fill="#EEF0F7"/>
<path d="M598.201 365.211L597.071 369.259C595.012 370.721 592.621 371.646 590.114 371.953C589.66 372.009 589.201 372.046 588.737 372.059C588.57 372.066 588.404 372.067 588.237 372.067C587.737 372.067 587.251 372.045 586.769 371.997C586.235 371.946 585.703 371.868 585.177 371.762C582.902 371.299 580.763 370.322 578.924 368.906C578.707 367.567 578.475 366.088 578.271 364.706C579.394 364.288 582.971 363.071 585.233 362.306C585.263 362.294 585.296 362.284 585.326 362.275C585.377 362.257 585.426 362.24 585.473 362.225C585.606 362.179 585.733 362.136 585.857 362.096L586.208 361.975C586.67 361.821 586.995 361.71 587.108 361.675L587.154 361.658H587.179L590.216 361.887L590.726 361.923L590.885 361.935L590.955 361.953C591.137 361.999 591.669 362.139 592.375 362.353C594.184 362.899 597.101 363.946 598.201 365.211Z" fill="#D9C7C1"/>
<path d="M589.032 349.171C589.032 349.171 592.674 349.787 592.056 355.488C591.438 361.189 588.222 360.688 588.007 360.68C587.792 360.672 584.773 360.748 584.616 353.774C584.616 353.774 584.567 348.623 589.032 349.171Z" fill="#EEA987"/>
<path d="M590.628 359.027C590.556 359.98 590.588 360.939 590.723 361.885C590.947 362.395 587.799 364.012 585.844 362.172C586.035 361.025 586.126 359.864 586.117 358.701C585.996 357.795 590.628 359.027 590.628 359.027Z" fill="#EEA987"/>
<path d="M592.131 353.877C592.131 353.877 592.531 353.456 592.676 353.89C592.821 354.324 592.03 356.244 592.076 356.332C592.076 356.332 592.003 356.499 591.907 356.405C591.93 355.559 592.005 354.714 592.131 353.877Z" fill="#EEA987"/>
<path d="M584.656 353.723C584.656 353.723 584.27 353.282 584.109 353.711C584.132 354.555 584.301 355.389 584.609 356.175C584.609 356.175 584.733 356.375 584.831 356.284C584.825 355.428 584.767 354.572 584.656 353.723Z" fill="#EEA987"/>
<path d="M592.363 353.392C592.237 354.172 592.12 354.752 592.12 354.752L591.59 355.445C591.611 354.854 591.594 354.263 591.54 353.674C591.51 353.581 591.474 353.42 591.44 353.247C591.379 352.959 591.316 352.634 591.273 352.523C589.375 351.827 587.282 351.895 585.433 352.712C585.433 352.712 585.455 352.946 585.455 353.212C585.455 353.519 585.419 353.86 585.279 353.912C585.019 354.012 585.127 355.703 585.127 355.703L584.703 355.214C584.703 355.214 584.58 354.329 584.46 353.314V353.307C584.432 353.068 584.405 352.825 584.377 352.583C584.286 351.859 584.363 351.123 584.602 350.433C584.84 349.743 585.234 349.117 585.752 348.603C587.278 348.023 588.965 348.031 590.485 348.625C590.729 348.634 590.969 348.697 591.185 348.811C592.676 350.445 592.363 353.392 592.363 353.392Z" fill="#AB47BC"/>
<path d="M586.365 359.917C586.605 360.188 586.904 360.399 587.24 360.535C587.575 360.67 587.937 360.725 588.298 360.696C588.654 360.71 589.009 360.652 589.342 360.526C589.675 360.399 589.978 360.207 590.235 359.96C590.055 360.331 589.781 360.649 589.44 360.881C589.099 361.113 588.703 361.251 588.292 361.282C587.88 361.242 587.485 361.094 587.147 360.855C586.81 360.616 586.54 360.292 586.365 359.917Z" fill="#C78D71"/>
<path d="M585.472 362.221C585.777 362.72 586.189 363.146 586.678 363.467C587.167 363.789 587.721 363.998 588.3 364.08C589.475 364.18 590.492 362.692 590.971 361.961C590.083 361.637 589.139 361.493 588.195 361.538C587.251 361.582 586.325 361.815 585.472 362.221Z" fill="#EEA987"/>
<path d="M590.631 361.427C589.962 362.216 589.176 362.898 588.3 363.448L589.287 364.967L590.97 361.967L590.631 361.427Z" fill="#EDDAD3"/>
<path d="M585.917 361.651C586.568 362.418 587.382 363.031 588.299 363.444L587.217 365.008L585.323 362.269L585.917 361.651Z" fill="#EDDAD3"/>
<path d="M588.3 363.444L589.147 364.728C588.883 364.869 588.586 364.941 588.287 364.936C587.987 364.93 587.693 364.849 587.434 364.698L588.3 363.444Z" fill="#5073AB"/>
<path d="M599.178 364.971L599.153 365.056C599.06 365.386 598.704 366.656 598.238 368.345C598.064 368.496 597.883 368.645 597.701 368.787C597.496 368.95 597.285 369.107 597.07 369.259C595.011 370.721 592.62 371.646 590.113 371.953C590.34 366.653 590.968 361.961 590.968 361.961C591.468 362.092 591.936 362.221 592.38 362.349C594.636 362.933 596.823 363.759 598.903 364.811L598.916 364.818C599.097 364.918 599.178 364.971 599.178 364.971Z" fill="#323657"/>
<path d="M585.175 371.763C582.9 371.3 580.761 370.323 578.922 368.907C578.376 368.49 577.86 368.036 577.376 367.548C577.283 367.454 577.189 367.356 577.098 367.26C576.83 366.122 576.652 365.38 576.641 365.331C576.63 365.282 578.535 364.087 585.232 362.301C585.232 362.455 585.235 366.751 585.175 371.763Z" fill="#323657"/>
<path d="M588.783 364.87C588.722 366.27 588.715 368.97 588.737 372.059C588.57 372.066 588.404 372.067 588.237 372.067C587.737 372.067 587.251 372.045 586.769 371.997C586.925 369.597 587.265 367.212 587.786 364.864C587.861 364.556 587.905 364.402 587.905 364.402L588.805 364.551C588.795 364.65 588.788 364.756 588.783 364.87Z" fill="#5073AB"/>
<path d="M599.949 366.61C599.426 367.233 598.854 367.813 598.239 368.345C598.065 368.496 597.884 368.645 597.702 368.787C597.709 368.769 598.582 366.222 599.178 364.971C599.583 365.241 599.765 366.159 599.949 366.61Z" fill="#323657"/>
<path d="M577.377 367.547C577.284 367.453 577.19 367.355 577.099 367.259C576.757 366.897 576.433 366.517 576.13 366.121C576.225 365.815 576.402 365.541 576.642 365.329L577.377 367.547Z" fill="#323657"/>
<path d="M474.577 551.234C473.401 549.354 471.776 547.797 469.848 546.703C467.116 545.432 461.513 549.869 461.021 552.336L454.526 561.811L455.755 562.656L459.223 557.598C456.862 563.278 453.489 570.079 455.86 573.498C459.039 578.087 466.251 582.726 468.16 581.923C470.069 581.12 469.684 567.777 469.684 567.777C467.623 555.997 474.577 551.234 474.577 551.234Z" fill="#1D3B54"/>
<path d="M474.576 551.234C473.22 553.855 472.023 556.554 470.992 559.319C469.776 562.851 469.547 572.636 468.782 573.319C468.017 574.002 461.973 570.948 461.166 567.29C460.359 563.632 462.809 556.316 465.142 552.476C466.399 550.319 467.987 548.373 469.847 546.707C469.847 546.707 473.967 547.505 474.576 551.234Z" fill="#DE9673"/>
<path d="M497.903 465.49C497.903 465.49 494.203 485.133 494.203 489.83C494.107 496.094 492.65 502.262 489.933 507.907C486.946 513.607 473.833 552.5 472.689 557.033C471.545 561.566 470.575 565.841 470.575 565.841C470.575 565.841 464.027 562.852 464.027 558.581C464.027 554.31 469.721 519.012 470.717 512.037C471.713 505.062 479.97 469.337 479.97 469.337L497.903 465.49Z" fill="#DE9673"/>
<path d="M476.974 464.209C476.974 464.209 478.255 480.578 478.112 484.848C477.969 489.118 475.976 498.798 475.976 501.361C475.976 503.924 475.976 557.009 478.1 563.415C480.224 569.821 472.134 565.415 472.134 565.415C472.134 565.415 458.043 530.498 458.043 515.93C458.043 501.362 459.75 494.103 458.754 484.85C457.758 475.597 453.328 463.419 453.328 463.419L476.974 464.209Z" fill="#EEA886"/>
<path d="M455.659 385.42C450.81 391.788 447.531 399.211 446.089 407.084C444.098 419.469 448.448 442.82 449.997 449.576C451.354 455.506 453.95 474.481 454.097 476.476C454.097 476.476 479.567 479.36 498.925 473.24C498.925 473.24 500.696 446.74 501.836 435.492C502.976 424.244 497.417 386.275 497.417 386.275L455.659 385.42Z" fill="#3876C8"/>
<path d="M484.782 579.564C475.658 571.596 478.1 563.415 478.1 563.415C478.1 563.415 474.452 562.115 471.491 562.858C468.53 563.601 466.941 570.658 468.126 572.918L469.049 584.518L470.549 584.395L470.057 578.204C471.817 584.182 473.49 591.687 477.536 592.87C482.964 594.459 491.599 593.518 492.59 591.67C493.581 589.822 484.782 579.564 484.782 579.564Z" fill="#1D3B54"/>
<path d="M490.135 298.685C490.135 298.685 487.878 312.122 489.829 316.633C491.78 321.144 479.469 311.358 479.469 311.358C479.469 311.358 484.577 296.554 490.135 298.685Z" fill="#754836"/>
<path d="M485.584 261.357C485.584 261.357 465.825 256.834 463.365 277.947C460.905 299.06 469.793 301.71 463.776 316.019C457.759 330.328 478.471 311.358 478.471 311.358L485.584 261.357Z" fill="#754836"/>
<path d="M483.881 261.05C488.952 260.95 500.116 263.814 501.47 277.287C501.151 279.464 500.66 281.613 500.004 283.714C499.046 286.532 501.358 294.987 500.68 295.383C499.564 295.774 498.412 296.057 497.242 296.228C497.242 296.228 494.029 305.304 490.815 305.135C487.601 304.966 475.501 302.11 470.09 290.552C464.679 278.994 463.4 261.464 483.881 261.05Z" fill="#EEA886"/>
<path d="M428.615 428.212C428.615 428.212 429.089 420.087 431.239 418.826C433.389 417.565 432.147 420.079 432.147 420.079C432.147 420.079 430.939 425.974 430.673 428.363C429.984 428.371 429.296 428.32 428.615 428.212Z" fill="#1D3B54"/>
<path d="M438.573 409.921C438.992 412.338 439.56 414.728 440.273 417.075C441.373 420.586 442.394 421.706 441.951 423.717C441.616 425.236 439.898 426.376 439.464 425.891C439.03 425.406 438.821 419.497 436.374 419.526C433.927 419.555 437.105 426.839 435.648 426.304C434.191 425.769 428.587 422.697 428.94 419.722C429.293 416.747 431.534 414.594 431.39 410.149C431.259 406.115 432.515 404.428 432.515 404.428L438.573 409.921Z" fill="#EEA886"/>
<path d="M436.617 419.278C436.617 419.278 439.876 420.111 439.682 431.132L435.992 430.516C435.992 430.516 436.062 424.426 434.958 421.105C434.958 421.105 435.148 418.948 436.617 419.278Z" fill="#1D3B54"/>
<path d="M450.146 433.615L421.416 425.465L421.5 460.848L450.093 477.986L450.146 433.615Z" fill="#EDDAD3"/>
<path d="M450.093 477.988L446.493 478.651L418.683 461.357L419.03 425.629L421.418 425.467L450.093 477.988Z" fill="#EDDAD3"/>
<path d="M486.613 310.686C486.613 310.686 494.272 313.831 495.639 314.786C497.006 315.741 499.739 326.821 500.426 327.779C501.113 328.737 507.718 336.949 506.803 343.608C506.086 348.84 503.128 351.608 501.213 353.66C499.298 355.712 497.525 366.76 496.925 368.396C496.325 370.032 498.234 391.58 498.234 391.58C498.234 391.58 475.761 400.326 455.659 385.42C455.659 385.42 459.672 370.996 459.672 368.396C459.672 365.796 457.072 347.472 450.099 336.668C443.126 325.864 451.33 314.376 456.663 313.011C461.996 311.646 472.253 307.811 472.253 307.811L486.613 310.686Z" fill="#3876C8"/>
<path d="M462.097 311.379C462.097 311.379 450.851 310.686 445.209 317.251C439.567 323.816 439.876 331.61 438.439 334.995C437.002 338.38 433.72 352.943 433.003 355.304C432.286 357.665 431.585 370.923 430.559 381.589C429.533 392.255 429.741 412.175 429.741 412.175L440.502 410.223C440.502 410.223 440.936 391.236 441.209 380.223C441.482 369.21 450.439 349.761 453.824 341.247C457.209 332.733 470.686 316.72 462.097 311.379Z" fill="#3876C8"/>
<path d="M494.524 314.166C496.085 314.35 497.573 314.927 498.85 315.843C500.127 316.759 501.15 317.984 501.824 319.403C504.183 324.327 505.086 328.421 505.701 329.652C506.316 330.883 514.85 347.096 515.363 350.687C515.876 354.278 515.055 360.841 510.542 362.587C506.029 364.333 489.824 364.534 489.824 364.534C489.824 364.534 493.924 356.199 490.13 351.889C490.13 351.889 501.892 349.765 504.675 349.483C507.616 349.192 490.798 317.857 494.524 314.166Z" fill="#3876C8"/>
<path d="M467.583 328.086L489.497 379.266L516.815 366.396L496.615 317.247L467.583 328.086Z" fill="#1D3B54"/>
<path d="M480.153 353.23C480.153 353.23 477.187 354.019 476.246 354.156C475.305 354.293 476.468 356.031 477.621 356.085C478.774 356.139 480.153 353.23 480.153 353.23Z" fill="#EEA886"/>
<path d="M482.145 367.793C482.817 367.769 483.48 367.637 484.11 367.402C484.11 367.402 485.134 366.729 485.889 366.302C486.083 366.187 486.283 366.084 486.489 365.992C487.668 365.637 488.782 365.094 489.789 364.385C491.076 363.385 495.266 359.391 495.266 359.391L492.496 355.214L490.355 351.89C490.355 351.89 481.355 352.137 480.041 352.93C479.916 353.005 479.796 353.088 479.681 353.177C478.942 353.862 478.275 354.621 477.691 355.443C477.507 355.617 475.809 357.473 475.91 358.216C475.939 358.632 476.074 359.034 476.301 359.384C476.529 359.734 476.841 360.02 477.21 360.216C477.403 361.296 477.894 362.3 478.627 363.116C478.724 363.666 478.945 364.186 479.274 364.637C479.604 365.088 480.032 365.457 480.527 365.716C480.527 365.716 481.023 367.581 482.145 367.793Z" fill="#EEA886"/>
<path d="M490.135 351.889C490.135 351.889 503.477 349.505 507.162 349.116C507.294 346.226 507.153 343.33 506.741 340.467C506.067 336.499 502.809 331.177 502.809 331.177L509.632 337.425C509.632 337.425 515.242 348.173 515.368 350.688C515.494 353.203 516.158 357.08 512.84 361.013C509.522 364.946 493.851 363.145 493.851 363.145C493.851 363.145 495.16 358.32 490.135 351.889Z" fill="#3876C8"/>
<path d="M486.032 302.992C486.032 302.992 485.6 304.264 485.098 306.157C484.841 307.125 484.565 308.257 484.318 309.457C483.64 312.784 483.19 316.679 483.982 319.305C483.982 319.305 476.803 321.567 471.472 311.362C471.472 311.362 474.187 300.604 471.238 293.952C468.289 287.3 486.032 302.992 486.032 302.992Z" fill="#EEA886"/>
<path d="M501.469 277.286C501.469 277.286 493.088 282.658 484.895 283.558C476.702 284.458 472.146 296.858 472.146 296.858C472.146 296.858 459.264 276.801 469.638 264.474C480.012 252.147 503.686 261.689 501.469 277.286Z" fill="#754836"/>
<path d="M481.513 283.093C481.513 281.511 479.823 279.093 477.172 281.176C474.521 283.259 477.792 290.876 479.934 290.196C482.076 289.516 481.513 284.725 481.513 283.093Z" fill="#EEA886"/>
<path d="M487.067 310.873C487.067 310.873 490.443 320.84 482.546 320.787C474.649 320.734 471.21 314.526 468.955 309.017C470.661 308.166 472.447 307.488 474.288 306.992C475.98 306.736 487.067 310.873 487.067 310.873Z" fill="#EEA886"/>
<path d="M439.689 430.652L435.989 431.131V429.403L439.689 430.652Z" fill="#1D3B54"/>
<path d="M430.703 428.103L428.657 428.346C428.657 428.346 428.65 427.73 428.669 427.526C428.688 427.322 430.631 427.973 430.703 428.103Z" fill="#1D3B54"/>
<path d="M478.103 563.415C478.706 566.343 479.483 569.232 480.432 572.067C481.724 575.624 487.777 583.474 487.606 584.498C487.435 585.522 480.732 586.97 477.768 584.598C474.804 582.226 472.074 574.909 471.462 570.398C471.091 567.941 470.995 565.45 471.174 562.971C471.174 562.971 475.245 560.864 478.103 563.415Z" fill="#EEA886"/>
<path d="M485.739 304.024C485.482 304.992 485.101 306.156 484.805 307.309C481.002 304.788 477.741 301.531 475.215 297.731C478.889 301.25 485.739 304.024 485.739 304.024Z" fill="#A77860"/>
<path d="M266.156 112.227H180.806C177.048 112.227 174.001 115.274 174.001 119.032V158.858C174.001 162.616 177.048 165.663 180.806 165.663H266.156C269.914 165.663 272.961 162.616 272.961 158.858V119.032C272.961 115.274 269.914 112.227 266.156 112.227Z" fill="#DFE1E8"/>
<path d="M123.083 380.543C123.075 380.541 123.068 380.541 123.06 380.543C123.159 380.586 123.174 380.591 123.083 380.543Z" fill="#323657"/>
<path d="M74.55 372.02H150.573C151.802 372.02 152.798 371.024 152.798 369.795V364.628C152.798 363.399 151.802 362.403 150.573 362.403H74.55C73.3212 362.403 72.325 363.399 72.325 364.628V369.795C72.325 371.024 73.3212 372.02 74.55 372.02Z" fill="#C96AD9" fill-opacity="0.3"/>
<path d="M74.55 389.365H150.573C151.802 389.365 152.798 388.369 152.798 387.14V381.974C152.798 380.745 151.802 379.749 150.573 379.749H74.55C73.3212 379.749 72.325 380.745 72.325 381.974V387.14C72.325 388.369 73.3212 389.365 74.55 389.365Z" fill="#C96AD9" fill-opacity="0.3"/>
<path d="M150.573 406.711H74.55C73.9599 406.711 73.394 406.477 72.9767 406.059C72.5594 405.642 72.325 405.076 72.325 404.486V399.317C72.325 399.025 72.3825 398.736 72.4943 398.466C72.6061 398.196 72.7699 397.951 72.9764 397.744C73.1829 397.538 73.4281 397.374 73.6979 397.262C73.9677 397.151 74.2569 397.093 74.549 397.093H150.573C151.163 397.093 151.729 397.327 152.146 397.745C152.564 398.162 152.798 398.728 152.798 399.318V404.486C152.798 405.076 152.564 405.642 152.146 406.059C151.729 406.477 151.163 406.711 150.573 406.711Z" fill="#C96AD9" fill-opacity="0.3"/>
<path d="M178.782 257.615H201.682C202.781 257.615 203.835 258.052 204.612 258.829C205.389 259.606 205.826 260.66 205.826 261.759V321.177C205.826 321.721 205.719 322.26 205.511 322.763C205.302 323.266 204.997 323.722 204.612 324.107C204.227 324.492 203.771 324.797 203.268 325.006C202.765 325.214 202.226 325.321 201.682 325.321H178.781C177.682 325.321 176.628 324.884 175.851 324.107C175.074 323.33 174.637 322.276 174.637 321.177V261.76C174.637 260.661 175.074 259.606 175.851 258.829C176.628 258.052 177.683 257.615 178.782 257.615Z" fill="#C96AD9" fill-opacity="0.3"/>
<path d="M11.234 446.512C11.9003 447.607 12.3577 448.815 12.583 450.077C12.9438 451.548 13.4983 452.964 14.232 454.289C15.1095 456.564 15.7789 458.913 16.232 461.309C16.254 461.809 15.132 464.992 15.288 466.009C15.444 467.026 16.029 469.039 15.116 469.173C14.203 469.307 13.168 467.657 13.168 467.657C13.1912 467.916 13.1386 468.176 13.0169 468.405C12.8951 468.634 12.7092 468.823 12.482 468.949C12.1413 469.168 11.748 469.291 11.3434 469.306C10.9387 469.32 10.5376 469.226 10.182 469.032C10.182 469.032 9.627 470.063 8.933 470.202C8.55172 470.314 8.15118 470.344 7.75748 470.29C7.36378 470.237 6.98575 470.101 6.648 469.892C6.14865 470.268 5.53691 470.464 4.912 470.449C4.51425 470.435 4.1272 470.316 3.78943 470.106C3.45167 469.895 3.175 469.6 2.98701 469.249C2.98701 469.249 1.271 469.597 0.774001 468.797C0.441737 468.042 0.233079 467.238 0.156004 466.416C-0.0184668 462.304 0.724494 458.205 2.331 454.416C4.558 449.699 1.766 445.095 1.766 445.095L11.234 446.512Z" fill="#EEA886"/>
<path d="M13.41 467.042C13.41 467.042 13.562 461.162 12.01 459.911C10.458 458.66 10.287 460.781 10.287 460.781C10.287 460.781 10.497 458.681 8.80599 458.4C7.11499 458.119 7.04299 460.609 7.04299 460.609C7.00284 460.384 6.91612 460.171 6.78841 459.982C6.66069 459.792 6.49482 459.632 6.30145 459.511C6.10807 459.39 5.89149 459.311 5.66563 459.278C5.43976 459.246 5.20961 459.261 4.98999 459.323C3.21399 459.654 3.636 461.723 3.636 461.723C3.636 461.723 1.93599 459.698 0.835992 461.642C-1.02101 464.924 0.769998 468.801 0.769998 468.801C0.769998 468.801 1.294 469.689 2.983 469.253C2.983 469.253 4.115 471.531 6.645 469.894C6.645 469.894 9.23499 471.319 10.179 469.034C10.186 469.032 13.041 470.389 13.41 467.042Z" fill="#DB9C7C"/>
<path d="M31.182 361.81C31.182 361.81 21.115 395.358 17.714 407.733C16.649 411.613 14.066 448.676 13.614 450.169C13.162 451.662 0.389008 453.706 0.389008 453.706C0.389008 453.706 1.93601 407.339 2.08101 404.806C2.22601 402.273 16.169 350.498 20.223 348.65C23.262 347.267 24.865 348.411 28.694 351.25C34.063 355.249 31.182 361.81 31.182 361.81Z" fill="#323657"/>
<path d="M129.343 314.811L152.388 299.738L153.508 301.449L130.462 316.522L129.343 314.811Z" fill="#4DA8F2"/>
<path d="M155.963 308.405C155.864 309.042 155.663 309.659 155.368 310.232C155.368 310.232 154.614 311.132 154.117 311.801C153.987 311.972 153.866 312.151 153.756 312.336C153.285 313.417 152.643 314.416 151.856 315.295C150.756 316.407 146.485 319.947 146.485 319.947L142.824 316.839L139.024 315.139C139.024 315.139 141.155 305.886 142.056 304.731C142.141 304.621 142.233 304.515 142.331 304.416C143.066 303.788 143.864 303.239 144.713 302.777C144.899 302.623 146.855 301.213 147.553 301.395C147.946 301.47 148.314 301.643 148.621 301.9C148.929 302.157 149.165 302.487 149.309 302.861C150.315 303.166 151.216 303.746 151.909 304.536C152.422 304.69 152.892 304.959 153.285 305.323C153.677 305.687 153.98 306.136 154.172 306.636C154.172 306.636 155.885 307.314 155.963 308.405Z" fill="#EFAA88"/>
<path d="M23.015 590.872C23.015 590.872 22.097 597.239 21.983 598.198C21.869 599.157 11.775 597.633 11.775 597.633L10.958 590.05C10.958 590.05 21.752 589.974 23.015 590.872Z" fill="#424773"/>
<path d="M22.091 597.387C23.8907 599.537 26.0121 601.396 28.38 602.898C31.473 604.57 36.333 605.232 38.162 606.964C39.482 608.215 42.97 613.594 30.125 613.487C17.28 613.38 11.088 614.248 9.71201 612.187C8.33601 610.126 11.703 596.959 11.703 596.959C11.703 596.959 14.744 598.051 22.091 597.387Z" fill="#292C47"/>
<path d="M95.326 590.872C95.326 590.872 94.408 597.239 94.294 598.198C94.18 599.157 84.086 597.633 84.086 597.633L83.269 590.05C83.269 590.05 94.063 589.974 95.326 590.872Z" fill="#424773"/>
<path d="M94.403 597.387C96.2035 599.537 98.3256 601.396 100.694 602.898C103.786 604.57 115.166 605.945 116.994 607.676C118.314 608.927 120.511 613.957 102.437 613.486C89.597 613.151 83.399 614.247 82.024 612.186C80.649 610.125 84.014 596.958 84.014 596.958C84.014 596.958 86.881 598.126 94.403 597.387Z" fill="#292C47"/>
<path d="M31.371 427.222C31.371 427.222 21.887 442.289 22.595 455.908C23.303 469.527 19.157 484.397 17.732 498.623C16.145 514.484 9.645 552.032 9.408 560.516C9.171 569 10.417 596.092 10.417 596.092L23.428 596.392C23.428 596.392 34.355 530.75 37.184 524.051C40.013 517.352 54.047 469.6 54.519 464.242C54.991 458.884 31.371 427.222 31.371 427.222Z" fill="#292C47"/>
<path d="M81.297 429.265C81.297 429.265 88.443 466.593 89.386 474.926C90.329 483.259 90.958 515.266 91.43 520.475C91.902 525.684 95.835 588.493 97.09 596.389H80.452C80.452 596.389 67.685 550.618 67.685 528.959C67.685 507.3 57.822 481.878 51.455 467.588C45.088 453.298 30.513 452.962 26.597 426.45C26.597 426.45 75.997 420.855 81.297 429.265Z" fill="#292C47"/>
<path d="M47.195 300.551C47.195 300.551 59.924 295.798 65.795 305.487C71.666 315.176 71.095 334.572 64.683 336.958C58.271 339.344 48.629 338.095 45.343 332.034C42.057 325.973 39.094 317.206 39.236 311.349C39.378 305.492 43.853 302.243 47.195 300.551Z" fill="#EEA886"/>
<path d="M63.299 337.402C63.299 337.402 62.769 340.838 63.644 342.531C64.519 344.224 47.154 344.267 47.154 344.267C46.2281 338.508 44.8634 332.829 43.072 327.278C40.399 319.5 63.299 337.402 63.299 337.402Z" fill="#EEA886"/>
<path d="M43.072 327.279C43.072 327.279 44.272 329.257 49.164 328.49C54.056 327.723 60.024 321.215 62.064 320.498C64.104 319.781 64.127 318.584 64.127 318.584L65.406 320.453L67.575 320.59C67.575 320.59 65.597 314.766 68.582 312.39C71.567 310.014 65.482 293.542 49.792 299.026C49.792 299.026 37.74 302.348 38.18 309.2C38.62 316.052 40.375 323.866 43.072 327.279Z" fill="#D88A51"/>
<path d="M64.674 342.327C64.674 342.327 64.621 339.093 63.153 338.781C61.685 338.469 46.971 337.056 45.172 337.764V341.532C45.172 341.532 48.64 343.67 64.674 342.327Z" fill="#E2D2CA"/>
<path d="M63.805 316.092C63.53 314.942 60.605 311.657 59.487 315.174C58.369 318.691 61.179 323.423 62.746 323.017C64.313 322.611 64.501 319.006 63.805 316.092Z" fill="#EEA886"/>
<path d="M89.018 347.225C78.926 345.895 64.675 342.325 64.675 342.325L45.175 341.531C45.175 341.531 27.275 345.471 20.225 348.655C19.556 348.955 19.554 364.625 17.718 368.732L23.559 381.064C23.559 381.064 26.936 405.49 27.636 416.354C27.957 421.339 20.672 463.114 20.672 463.114C27.6 464.929 34.6617 466.188 41.79 466.88C55.101 468.346 88.359 466.35 88.57 464.78C88.781 463.21 82.128 406.237 81.835 403.286C81.383 398.758 83.396 374.696 83.396 374.696C86.469 372.312 113.454 359.786 120.815 353.259C122.787 351.511 131.1 343.414 133.466 340.619C141.836 330.719 148.697 322.23 149.532 320.401C150.48 319.359 140.438 313.901 139.527 313.595C138.727 313.328 127.414 327.989 123.06 332.706C121.118 334.806 113.045 340.683 113.045 340.683C113.045 340.683 95.33 347.588 89.018 347.225Z" fill="#323657"/>
<path d="M43.57 301.694C43.57 301.694 27.34 302.965 43.07 327.278L43.57 301.694Z" fill="#D88A51"/>
<path d="M153.504 301.444L154.836 299.413L152.385 299.733L153.504 301.444Z" fill="#DFE1E8"/>
</g>
<defs>
<linearGradient id="paint0_linear_1_2" x1="432.805" y1="198.536" x2="432.805" y2="233.483" gradientUnits="userSpaceOnUse">
<stop stop-color="#AB47BC"/>
<stop offset="1" stop-color="#C96AD9"/>
</linearGradient>
<linearGradient id="paint1_linear_1_2" x1="432.806" y1="243.319" x2="432.806" y2="278.266" gradientUnits="userSpaceOnUse">
<stop stop-color="#AB47BC"/>
<stop offset="1" stop-color="#C96AD9"/>
</linearGradient>
<linearGradient id="paint2_linear_1_2" x1="432.805" y1="288.103" x2="432.805" y2="323.05" gradientUnits="userSpaceOnUse">
<stop stop-color="#AB47BC"/>
<stop offset="1" stop-color="#C96AD9"/>
</linearGradient>
<clipPath id="clip0_1_2">
<rect width="747.534" height="613.577" fill="white"/>
</clipPath>
</defs>
</svg>
